<svg xmlns="http://www.w3.org/2000/svg" viewBox="0 0 500 500"><g id="freepik--Floor--inject-70"><ellipse id="freepik--floor--inject-70" cx="254.81" cy="351.81" rx="223.72" ry="128.93" style="fill:#fafafa"></ellipse></g><g id="freepik--Trees--inject-70"><g id="freepik--Tree--inject-70"><g id="freepik--tree--inject-70"><path d="M27.07,265.4l16.75,33.2V275.85H48v18.61L66.4,262.29,48,301.78v39.71a1,1,0,0,1-.61.85,3.26,3.26,0,0,1-3,0,1,1,0,0,1-.61-.85V307.06Z" style="fill:#263238"></path><path d="M75.52,204.26A29.7,29.7,0,0,0,48,172.82a29.67,29.67,0,0,0-31.76,29.6c0,.38,0,.75,0,1.12a32.56,32.56,0,0,1-4.35,17.68,39.3,39.3,0,1,0,67.88-.17A29.62,29.62,0,0,1,75.52,204.26Z" style="fill:#455a64"></path><path d="M45.31,280.25a39.3,39.3,0,0,0,34.48-59.2,29.62,29.62,0,0,1-4.27-16.79A29.67,29.67,0,0,0,60,176.32c5,3.1,7.67,8.82,8.9,13.91,1.79,7.43-1.31,12.22-.08,20,.94,6,3.77,9.8,4.69,17,.63,4.84.05,12-2.23,16.34-6.72,12.85-17,19.15-34,19.08a44.05,44.05,0,0,1-19.7-5.14A39,39,0,0,1,9.77,252a20.15,20.15,0,0,1-2.53-4A39.49,39.49,0,0,0,45.31,280.25Z" style="fill:#37474f"></path></g></g><g id="freepik--tree--inject-70"><rect x="432.4" y="207.91" width="2.68" height="32.76" transform="translate(-54.55 220.51) rotate(-26.9)" style="fill:#263238"></rect><rect x="435.21" y="217.79" width="27.47" height="2.68" transform="translate(26.34 485.53) rotate(-58.24)" style="fill:#263238"></rect><path d="M438.91,204v70.39a1.11,1.11,0,0,0,.66.92,3.54,3.54,0,0,0,3.17,0,1.11,1.11,0,0,0,.65-.92V204Z" style="fill:#263238"></path><circle cx="418.38" cy="182.06" r="32.69" transform="translate(-30.64 101) rotate(-13.28)" style="fill:#455a64"></circle><path d="M408.14,173.69c-4.22-13.27-8.71-18.46-5.86-20.08a32.69,32.69,0,1,1-9.12,49.25C402.85,205.69,413.6,190.92,408.14,173.69Z" style="fill:#37474f"></path><path d="M446.91,191.31a23,23,0,1,0,23-23A23,23,0,0,0,446.91,191.31Z" style="fill:#455a64"></path><path d="M469.89,168.33a22.81,22.81,0,0,1,13.42,4.34c.63,14-11.29,27.72-8,32.32s11.54,1.78,14.4-2.13a23,23,0,1,1-19.86-34.53Z" style="fill:#37474f"></path><circle cx="441.15" cy="166.54" r="42.15" transform="translate(-30.02 148.05) rotate(-18.44)" style="fill:#455a64"></circle><path d="M400.12,176.17A42.15,42.15,0,1,0,472,137.81c-2.93-3.15-3.11-3.28-.23-.24a42.14,42.14,0,0,1-71.64,38.6Z" style="fill:#37474f"></path></g></g><g id="freepik--Book--inject-70"><g id="freepik--book--inject-70"><path d="M488.16,319.69,202.51,485.05a7.65,7.65,0,0,1-6.94,0L11.84,378.72c-1.91-1.11-1.91-2.91,0-4L298,209.49a7.68,7.68,0,0,1,6.94,0L488.16,315.68C490.07,316.79,490.07,318.59,488.16,319.69Z" style="fill:#e0e0e0"></path><path d="M195.73,475.75,16.7,372.38a2.33,2.33,0,0,1-1.37-1.89c0-.69,0-9,0-9l5.8,4.58L296.56,207.32a7.31,7.31,0,0,1,6.6,0L477.47,308l5.8-4.47c0-.06,0,8.22,0,8.89a2.28,2.28,0,0,1-1.36,1.95L352.56,389c-1.82,1-3.3,2.91-3.3,4.14s-1.48,3.09-3.3,4.14l-23.14,13.4c-1.82,1-3.3.91-3.3-.32s-1.47-1.39-3.3-.33L202.33,475.75A7.31,7.31,0,0,1,195.73,475.75Z" style="fill:#F59E0B"></path><path d="M198.4,476.47a6.52,6.52,0,0,1-2.67-.72L16.7,372.38a2.33,2.33,0,0,1-1.37-1.89c0-.69,0-9,0-9l60-26.66H198.4Z" style="opacity:0.15"></path><path d="M195.72,466.82l-179-103.36c-1.82-1.06-1.82-2.76,0-3.81L296.46,198.34a7.31,7.31,0,0,1,6.6,0L481.9,301.6c1.82,1,1.82,2.75,0,3.81L349.28,382c-1.82,1-3.3,2.9-3.3,4.13s-1.48,3.09-3.3,4.14l-16.61,9.59c-1.82,1.05-3.3.9-3.3-.33s-1.47-1.38-3.3-.33L202.32,466.82A7.31,7.31,0,0,1,195.72,466.82Z" style="fill:#F59E0B"></path><path d="M195.72,466.82l-179-103.36c-1.82-1.06-1.82-2.76,0-3.81L296.46,198.34a7.31,7.31,0,0,1,6.6,0L481.9,301.6c1.82,1,1.82,2.75,0,3.81L349.28,382c-1.82,1-3.3,2.9-3.3,4.13s-1.48,3.09-3.3,4.14l-16.61,9.59c-1.82,1.05-3.3.9-3.3-.33s-1.47-1.38-3.3-.33L202.32,466.82A7.31,7.31,0,0,1,195.72,466.82Z" style="fill:#fff;opacity:0.4"></path><path d="M334.59,381.56l0-5c-.05-6.13,10.93-23.63,24.59-31.52l110.62-63.85v22.31Z" style="fill:#fff"></path><path d="M469.75,281.21,359.14,345.07c-13.67,7.87-24.64,25.39-24.59,31.51l.05,5L164.44,283.31h0l0-5c-.06-6.13,10.92-23.63,24.58-31.52L299.54,183l0,0Z" style="fill:#f5f5f5"></path><path d="M343.22,335.88a55.39,55.39,0,0,0-13.77,11.78l-3.54-2a55.43,55.43,0,0,1,13.77-11.79l99.14-57.11,3.54,2Z" style="fill:#e0e0e0"></path><path d="M334.52,330.85a55.26,55.26,0,0,0-13.77,11.79l-3.54-2A55.23,55.23,0,0,1,331,328.81l99.14-57.11,3.54,2Z" style="fill:#e0e0e0"></path><path d="M325.82,325.83A55.44,55.44,0,0,0,312,337.61l-3.53-2a55.39,55.39,0,0,1,13.77-11.78l99.14-57.11,3.54,2Z" style="fill:#e0e0e0"></path><path d="M317.12,320.81a55.44,55.44,0,0,0-13.78,11.78l-3.54-2a55.48,55.48,0,0,1,13.78-11.79l99.14-57.11,3.54,2.05Z" style="fill:#e0e0e0"></path><path d="M308.42,315.78a55.48,55.48,0,0,0-13.78,11.79l-3.54-2.05a55.44,55.44,0,0,1,13.78-11.78L404,256.63l3.54,2Z" style="fill:#e0e0e0"></path><path d="M299.72,310.76a55.26,55.26,0,0,0-13.78,11.78l-3.54-2a55.44,55.44,0,0,1,13.78-11.78l99.14-57.11,3.53,2Z" style="fill:#e0e0e0"></path><path d="M291,305.73a55.64,55.64,0,0,0-13.77,11.79l-3.54-2a55.48,55.48,0,0,1,13.78-11.79l99.13-57.11,3.54,2Z" style="fill:#e0e0e0"></path><path d="M282.31,300.71a55.43,55.43,0,0,0-13.77,11.79L265,310.45a55.26,55.26,0,0,1,13.78-11.78l99.13-57.11,3.54,2Z" style="fill:#e0e0e0"></path><path d="M273.61,295.69a55.39,55.39,0,0,0-13.77,11.78l-3.54-2a55.39,55.39,0,0,1,13.77-11.78l99.14-57.11,3.54,2Z" style="fill:#e0e0e0"></path><path d="M264.91,290.66a55.64,55.64,0,0,0-13.77,11.79l-3.54-2a55.43,55.43,0,0,1,13.77-11.79l99.14-57.11,3.54,2.05Z" style="fill:#e0e0e0"></path><path d="M256.21,285.64a55.43,55.43,0,0,0-13.77,11.79l-3.54-2.05a55.39,55.39,0,0,1,13.77-11.78l99.14-57.11,3.54,2Z" style="fill:#e0e0e0"></path><path d="M247.51,280.62a55.39,55.39,0,0,0-13.77,11.78l-3.54-2A55.64,55.64,0,0,1,244,278.57l99.14-57.1,3.54,2Z" style="fill:#e0e0e0"></path><path d="M238.81,275.59A55.47,55.47,0,0,0,225,287.38l-3.54-2a55.43,55.43,0,0,1,13.77-11.79l99.14-57.11,3.54,2.05Z" style="fill:#e0e0e0"></path><path d="M230.11,270.57a55.48,55.48,0,0,0-13.78,11.79l-3.53-2.05a55.39,55.39,0,0,1,13.77-11.78l99.14-57.11,3.54,2Z" style="fill:#e0e0e0"></path><path d="M221.41,265.55a55.44,55.44,0,0,0-13.78,11.78l-3.54-2a55.69,55.69,0,0,1,13.78-11.79L317,206.4l3.54,2Z" style="fill:#e0e0e0"></path><path d="M212.71,260.52a55.69,55.69,0,0,0-13.78,11.79l-3.54-2a55.48,55.48,0,0,1,13.78-11.79l99.14-57.11,3.54,2Z" style="fill:#e0e0e0"></path><path d="M204,255.5a55.3,55.3,0,0,0-13.78,11.79l-3.54-2.05a55.44,55.44,0,0,1,13.78-11.78l99.14-57.11,3.53,2Z" style="fill:#e0e0e0"></path><path d="M334.55,376.94c-.05-6.14-11.24-11.24-24.93-3.4L199.05,436.89v22.92l135.54-78.25S334.61,383.07,334.55,376.94Z" style="fill:#fff"></path><polygon points="199.05 459.81 199.05 436.89 28.88 338.65 28.89 361.57 199.05 459.81" style="fill:#e0e0e0"></polygon><path d="M309.63,373.54l-4.95,2.83L199.05,436.89,48.74,350.11,28.89,338.65,139.47,275.3c10-5.76,15.63-5.3,19.58-3.06h0l172.49,99.59Q322.2,366.55,309.63,373.54Z" style="fill:#f0f0f0"></path><polygon points="191.31 419.63 285.48 365.29 290.43 362.46 294.06 364.55 289.1 367.38 194.93 421.72 191.31 419.63" style="fill:#e0e0e0"></polygon><polygon points="182.62 414.6 276.78 360.27 281.74 357.44 285.36 359.53 280.41 362.36 186.24 416.7 182.62 414.6" style="fill:#e0e0e0"></polygon><polygon points="173.92 409.58 268.09 355.25 273.04 352.42 276.67 354.51 271.71 357.34 177.54 411.68 173.92 409.58" style="fill:#e0e0e0"></polygon><polygon points="165.22 404.56 259.39 350.23 264.35 347.39 267.97 349.49 263.01 352.32 168.85 406.65 165.22 404.56" style="fill:#e0e0e0"></polygon><polygon points="156.53 399.54 250.69 345.21 255.65 342.38 259.27 344.47 254.32 347.3 160.15 401.63 156.53 399.54" style="fill:#e0e0e0"></polygon><polygon points="147.83 394.52 242 340.19 246.96 337.35 250.58 339.45 245.62 342.28 151.46 396.61 147.83 394.52" style="fill:#e0e0e0"></polygon><polygon points="139.13 389.5 233.3 335.17 238.26 332.33 241.88 334.43 236.93 337.26 142.76 391.59 139.13 389.5" style="fill:#e0e0e0"></polygon><polygon points="130.44 384.48 224.61 330.15 229.56 327.31 233.19 329.4 228.23 332.24 134.06 386.57 130.44 384.48" style="fill:#e0e0e0"></polygon><polygon points="121.74 379.46 215.91 325.13 220.87 322.29 224.49 324.38 219.53 327.22 125.37 381.55 121.74 379.46" style="fill:#e0e0e0"></polygon><polygon points="113.05 374.44 207.22 320.11 212.17 317.27 215.79 319.36 210.84 322.2 116.67 376.53 113.05 374.44" style="fill:#e0e0e0"></polygon><polygon points="104.35 369.42 198.52 315.08 203.47 312.25 207.1 314.34 202.14 317.18 107.97 371.51 104.35 369.42" style="fill:#e0e0e0"></polygon><polygon points="95.66 364.4 189.82 310.06 194.78 307.23 198.4 309.32 193.45 312.16 99.28 366.49 95.66 364.4" style="fill:#e0e0e0"></polygon><polygon points="86.96 359.38 181.13 305.04 186.08 302.21 189.71 304.3 184.75 307.14 90.58 361.47 86.96 359.38" style="fill:#e0e0e0"></polygon><polygon points="78.26 354.36 172.43 300.02 177.39 297.19 181.01 299.28 176.06 302.12 81.89 356.45 78.26 354.36" style="fill:#e0e0e0"></polygon><polygon points="69.57 349.34 163.74 295 168.69 292.17 172.31 294.26 167.36 297.09 73.19 351.43 69.57 349.34" style="fill:#e0e0e0"></polygon><polygon points="60.87 344.32 155.04 289.98 160 287.15 163.62 289.24 158.66 292.07 64.5 346.41 60.87 344.32" style="fill:#e0e0e0"></polygon><polygon points="52.18 339.3 146.34 284.96 151.3 282.13 154.92 284.22 149.97 287.05 55.8 341.39 52.18 339.3" style="fill:#e0e0e0"></polygon><polygon points="323.29 391.62 320.23 389.85 344.65 375.71 345.5 376.21 323.29 391.62" style="fill:#37474f"></polygon><path d="M343.47,376.43l-18.19,10.51a4.91,4.91,0,0,0-2.47,3.64c0,1.23,1.11,1.59,2.48.8l18.2-10.51a4.91,4.91,0,0,0,2.46-3.65C346,376,344.84,375.64,343.47,376.43Z" style="fill:#455a64"></path></g></g><g id="freepik--Bookshop--inject-70"><g id="freepik--bookshop--inject-70"><g id="freepik--Wall--inject-70"><polygon points="200.05 409.22 73.36 335.92 73.36 144.76 200.05 218.03 200.05 409.22" style="fill:#F59E0B"></polygon><polygon points="200.05 409.22 73.36 335.92 73.36 144.76 200.05 218.03 200.05 409.22" style="fill:#fff;opacity:0.30000000000000004"></polygon></g><g id="freepik--wall--inject-70"><polygon points="200.05 409.22 408.55 288.97 408.55 97.66 200.05 218.03 200.05 409.22" style="fill:#F59E0B"></polygon><polygon points="200.05 409.22 408.55 288.97 408.55 97.66 200.05 218.03 200.05 409.22" style="fill:#fff;opacity:0.6000000000000001"></polygon></g><polygon id="freepik--Shadow--inject-70" points="78.39 147.67 73.36 150.57 73.36 164.29 200.05 237.56 408.55 117.19 408.55 108.05 399.56 102.86 391.64 107.43 400.63 112.62 200.05 228.42 77.32 157.43 77.32 157.43 86.31 152.24 78.39 147.67" style="opacity:0.1"></polygon><g id="freepik--Sign--inject-70"><path d="M224.27,227.45l150.16-86.7a2,2,0,0,1,2-.2c.49.28,2.26,1.29,2.74,1.58A2,2,0,0,1,380,144v30.78a6.37,6.37,0,0,1-2.88,5L227,266.44a2,2,0,0,1-2,.19l-2.7-1.56a2,2,0,0,1-.85-1.86V232.43A6.35,6.35,0,0,1,224.27,227.45Z" style="fill:#fafafa"></path><path d="M227,266.44a2,2,0,0,1-2,.19l-2.7-1.56a2,2,0,0,1-.85-1.86V232.43a5.88,5.88,0,0,1,.84-2.83l34.27,19.78Z" style="fill:#e0e0e0"></path><path d="M377.13,142.31,227,229a6.35,6.35,0,0,0-2.88,5v30.78c0,1.84,1.29,2.58,2.88,1.67l150.16-86.7a6.37,6.37,0,0,0,2.88-5V144C380,142.14,378.72,141.39,377.13,142.31Z" style="fill:#f0f0f0"></path><path d="M231.1,248c0-2.86,1.13-4.73,2.67-5.62s2.79-.42,2.79,2.35-1.13,4.7-2.79,5.65S231.1,250.75,231.1,248Z" style="fill:#455a64"></path><path d="M240.16,250.35l1.07-.93c.59-.5.63-1,.63-1.92V233.06c0-1-.06-1.28-.67-1.08l-1,.31v-1.86l6.57-3.8c3.64-2.1,4.71-.26,4.71,2.67a9.38,9.38,0,0,1-2.38,6.29v.16c1.86-.89,3.19.18,3.19,2.92a10.67,10.67,0,0,1-5.76,9.89l-6.33,3.66Zm8.19-18.95c0-1.93-.63-3.16-2.73-2l-.77.45v7.41a7.64,7.64,0,0,0,.83-.42C247.64,235.76,248.35,234,248.35,231.4Zm.81,9.12c0-2.74-1.36-2.8-3.24-1.72a8.32,8.32,0,0,0-1.07.72v7.62a6.57,6.57,0,0,0,1.33-.61C248.57,245.15,249.16,242.85,249.16,240.52Z" style="fill:#455a64"></path><path d="M254.7,233.33c0-8.18,3.23-13.6,7.07-15.82s6.66-.26,6.66,6.93c0,6.66-2.35,13.25-6.88,15.86C256.86,243,254.7,239.5,254.7,233.33Zm10.61-6.53c0-5.23-1.35-8-3.86-6.52-2.34,1.36-3.6,4.94-3.6,10.61,0,5.26,1.2,8.24,3.88,6.69C264,236.3,265.31,232.81,265.31,226.8Z" style="fill:#455a64"></path><path d="M271.32,223.74c0-8.19,3.23-13.61,7.08-15.82s6.65-.27,6.65,6.93c0,6.66-2.35,13.24-6.88,15.85C273.48,233.41,271.32,229.9,271.32,223.74Zm10.61-6.54c0-5.23-1.35-8-3.86-6.51-2.34,1.35-3.6,4.94-3.6,10.6,0,5.26,1.2,8.25,3.89,6.7C280.58,226.7,281.93,223.21,281.93,217.2Z" style="fill:#455a64"></path><path d="M297.28,216.75l-2.87-5.47-1.64,3.49v3.43c0,1-.06,1.34.53,1.16l1.15-.36v1.87L288,224.6v-1.87l1.15-1c.59-.49.63-.86.63-1.79V205.42c0-1,0-1.29-.63-1.1l-1.15.35v-1.86l6.57-3.8v1.87l-1.23,1.05c-.57.49-.57.95-.57,1.89v7.66l5-10.71c.42-1.05.22-1.5-.23-1.33l-1,.34.2-2,5.12-2.95v1.93l-.67.6a5.75,5.75,0,0,0-1.29,2.15L296.41,207l3.28,6c.91,1.66,1.55,1.53,2.2,1.16a3.94,3.94,0,0,0,.81-.72l.26,1.63a6.75,6.75,0,0,1-2.44,2.72C299.46,218.41,298.25,218.61,297.28,216.75Z" style="fill:#455a64"></path><path d="M306.48,212.59l-.28,1.69-1.3.74-.34-6.12,1.5-1.17c.6,2,1.76,3.22,3.6,2.15a5,5,0,0,0,2.34-4.37c0-2-1.21-2.13-3-2-2.51.17-4.09-.44-4.09-4.4,0-3,1.32-7.26,4.66-9.19,1.57-.91,2.54-.56,3.09-.22l.26-1.71,1.21-.7.45,6.34-1.5,1.27c-.71-2.86-1.82-3.43-3.29-2.58a4.63,4.63,0,0,0-2.11,4.11c0,2.18,1.28,2,3.08,2.08,2,.1,4.12,0,4.12,4.22s-2.22,8.07-4.85,9.59A3.61,3.61,0,0,1,306.48,212.59Z" style="fill:#455a64"></path><path d="M317.68,205.59l.95-.83c.71-.59.75-.77.75-2V188.45c0-1.27,0-1.4-.75-1.18l-.95.27v-1.87l6.39-3.69v1.87l-1.05.92c-.59.49-.64.77-.64,1.93v5.63l5.45-3.15v-5.64c0-1.15-.06-1.36-.64-1.18l-1.06.3v-1.87l6.39-3.69V179l-.95.83c-.7.59-.74.77-.74,2V196.1c0,1.28,0,1.41.74,1.19l.95-.27v1.87l-6.39,3.69v-1.87l1.06-.92c.58-.49.64-.78.64-1.83v-6.29l-5.45,3.15v6.29c0,1.06.05,1.27.64,1.09l1.05-.3v1.87l-6.39,3.69Z" style="fill:#455a64"></path><path d="M335.48,186.69c0-8.18,3.23-13.6,7.07-15.82s6.66-.26,6.66,6.93c0,6.66-2.35,13.25-6.88,15.86C337.64,196.37,335.48,192.86,335.48,186.69Zm10.61-6.53c0-5.23-1.35-8-3.86-6.52-2.35,1.36-3.6,5-3.6,10.61,0,5.26,1.2,8.25,3.88,6.69C344.74,189.66,346.09,186.17,346.09,180.16Z" style="fill:#455a64"></path><path d="M352.2,185.66l1.07-.9c.59-.49.63-1,.63-1.94V168.37c0-1-.06-1.27-.67-1.08l-1,.32v-1.87l6-3.49c3.08-1.77,5.44-1.33,5.44,3.43,0,5.26-2.81,8.53-5,9.8a12.9,12.9,0,0,1-1.8.89v4.85c0,1,.1,1.38.75,1.13l1.41-.57v1.81l-6.83,3.94Zm8.37-18.4c0-2.55-.83-3.69-2.71-2.61l-1,.56v9.06a6.2,6.2,0,0,0,.81-.4C359.68,172.72,360.57,170.06,360.57,167.26Z" style="fill:#455a64"></path><path d="M366.8,169.64c0-2.87,1.13-4.73,2.67-5.62s2.79-.43,2.79,2.34-1.13,4.7-2.79,5.66S366.8,172.41,366.8,169.64Z" style="fill:#455a64"></path></g><g id="freepik--Roof--inject-70"><polyline points="273.94 24.55 273.94 33.69 392.71 102.23 400.63 97.66 273.94 24.55" style="fill:#F59E0B"></polyline><polyline points="273.94 24.55 273.94 33.69 392.71 102.23 400.63 97.66 273.94 24.55" style="fill:#fff;opacity:0.6000000000000001"></polyline><polyline points="273.94 24.55 273.94 33.69 392.71 102.23 400.63 97.66 273.94 24.55" style="opacity:0.15"></polyline><polyline points="200.05 222.61 57.52 140.32 57.52 149.46 200.05 231.75 200.05 222.61" style="fill:#F59E0B"></polyline><polyline points="200.05 222.61 57.52 140.32 57.52 149.46 200.05 231.75 200.05 222.61" style="fill:#fff;opacity:0.6000000000000001"></polyline><path d="M281.86,20l-7.92-4.58L57.52,140.32l142.53,82.29,216.42-125ZM200.05,213.46,73.36,140.32h0L273.94,24.55,400.63,97.66Z" style="fill:#F59E0B"></path><path d="M281.86,20l-7.92-4.58L57.52,140.32l142.53,82.29,216.42-125ZM200.05,213.46,73.36,140.32h0L273.94,24.55,400.63,97.66Z" style="fill:#fff;opacity:0.9"></path><polygon points="416.47 97.66 416.47 106.81 200.05 231.75 200.05 222.61 416.47 97.66" style="fill:#F59E0B"></polygon><polygon points="416.47 97.66 416.47 106.81 200.05 231.75 200.05 222.61 416.47 97.66" style="fill:#fff;opacity:0.75"></polygon><polygon points="273.94 24.55 273.94 33.69 81.28 144.89 73.36 140.32 273.94 24.55" style="fill:#F59E0B"></polygon><polygon points="273.94 24.55 273.94 33.69 81.28 144.89 73.36 140.32 273.94 24.55" style="fill:#fff;opacity:0.75"></polygon><polygon points="273.94 33.69 392.71 102.23 200.05 213.46 81.28 144.89 273.94 33.69" style="fill:#F59E0B"></polygon><polygon points="273.94 33.69 392.71 102.23 200.05 213.46 81.28 144.89 273.94 33.69" style="opacity:0.2"></polygon><polygon points="386.33 105.92 265.49 38.57 273.94 24.55 400.63 97.66 386.33 105.92" style="opacity:0.1"></polygon><polygon points="159.6 104.78 92.87 143.28 139.8 170.38 206.54 131.88 159.6 104.78" style="opacity:0.1"></polygon><polygon points="160.04 96.08 135.82 110.07 169.73 129.64 193.95 115.66 160.04 96.08" style="fill:#fafafa"></polygon><polygon points="135.82 110.07 135.82 124.05 169.73 143.63 169.73 129.64 135.82 110.07" style="fill:#e0e0e0"></polygon><polygon points="193.95 115.66 193.95 129.64 169.73 143.63 169.73 129.64 193.95 115.66" style="fill:#f0f0f0"></polygon><path d="M152.08,105.47c-4.39,2.54-4.39,6.66,0,9.19a17.58,17.58,0,0,0,15.92,0c4.4-2.54,4.4-6.65,0-9.19S156.48,102.94,152.08,105.47Z" style="fill:#e0e0e0"></path><path d="M156.32,108.09c-2.06,1.09-2.06,2.86,0,4a8.9,8.9,0,0,0,7.45,0c2.06-1.1,2.06-2.87,0-4A8.9,8.9,0,0,0,156.32,108.09Z" style="fill:#fafafa"></path><path d="M182.07,143.28a1.19,1.19,0,0,1-1.19-1.19v-7.7l-4.25-2.45a1.19,1.19,0,1,1,1.19-2.07l4.85,2.8a1.19,1.19,0,0,1,.59,1v8.39A1.19,1.19,0,0,1,182.07,143.28Z" style="fill:#F59E0B"></path><path d="M189.1,139.23a1.19,1.19,0,0,1-1.19-1.2v-7.7l-4.25-2.45a1.2,1.2,0,0,1,1.2-2.07l4.84,2.8a1.19,1.19,0,0,1,.6,1V138A1.2,1.2,0,0,1,189.1,139.23Z" style="fill:#F59E0B"></path><polygon points="126.14 115.66 101.92 129.64 135.82 149.22 160.04 135.24 126.14 115.66" style="fill:#fafafa"></polygon><polygon points="101.92 129.64 101.92 143.63 135.82 163.2 135.82 149.22 101.92 129.64" style="fill:#e0e0e0"></polygon><polygon points="160.04 135.24 160.04 149.22 135.82 163.2 135.82 149.22 160.04 135.24" style="fill:#f0f0f0"></polygon><path d="M118.18,125.05c-4.4,2.54-4.4,6.65,0,9.19a17.62,17.62,0,0,0,15.91,0c4.4-2.54,4.4-6.66,0-9.19A17.56,17.56,0,0,0,118.18,125.05Z" style="fill:#e0e0e0"></path><path d="M122.41,127.66c-2.06,1.1-2.06,2.87,0,4a8.9,8.9,0,0,0,7.45,0c2.06-1.09,2.06-2.86,0-4A8.9,8.9,0,0,0,122.41,127.66Z" style="fill:#fafafa"></path><path d="M148.16,162.86a1.19,1.19,0,0,1-1.19-1.19V154l-4.25-2.45a1.19,1.19,0,0,1,1.2-2.06l4.84,2.79a1.2,1.2,0,0,1,.59,1v8.39A1.19,1.19,0,0,1,148.16,162.86Z" style="fill:#F59E0B"></path><path d="M155.2,158.8a1.19,1.19,0,0,1-1.2-1.19v-7.7l-4.24-2.46a1.19,1.19,0,1,1,1.19-2.06l4.84,2.8a1.18,1.18,0,0,1,.6,1v8.39A1.19,1.19,0,0,1,155.2,158.8Z" style="fill:#F59E0B"></path></g><g id="freepik--Cornice--inject-70"><polyline points="208.02 293.72 200.05 289.19 200.05 298.33 208.01 302.87 208.02 293.72" style="fill:#F59E0B"></polyline><polyline points="208.02 293.72 200.05 289.19 200.05 298.33 208.01 302.87 208.02 293.72" style="fill:#fff;opacity:0.6000000000000001"></polyline><path d="M408.55,168.81h0L200.05,289.18h0l8,4.54L416.47,173.37Z" style="fill:#F59E0B"></path><path d="M408.55,168.81h0L200.05,289.18h0l8,4.54L416.47,173.37Z" style="fill:#fff;opacity:0.9"></path><polygon points="416.48 173.38 416.48 182.52 208.01 302.87 208.02 293.72 416.48 173.38" style="fill:#F59E0B"></polygon><polygon points="416.48 173.38 416.48 182.52 208.01 302.87 208.02 293.72 416.48 173.38" style="fill:#fff;opacity:0.75"></polygon></g><g id="freepik--Door--inject-70"><g id="freepik--door--inject-70"><polygon points="324.17 249.36 324.17 336.09 284.42 359.05 284.4 272.33 324.17 249.36" style="fill:#F59E0B"></polygon><polygon points="324.17 249.36 324.17 336.09 284.42 359.05 284.4 272.33 324.17 249.36" style="opacity:0.25"></polygon><polygon points="284.4 272.32 284.4 355.13 321.02 333.99 321.02 251.18 284.4 272.32" style="fill:#455a64"></polygon><path d="M291.31,347.63a.28.28,0,0,1-.15,0,.3.3,0,0,1-.15-.26,1.43,1.43,0,0,0-.51-1.29,1,1,0,0,0-1,.1.32.32,0,0,1-.3,0,.3.3,0,0,1-.15-.26V329.55a.31.31,0,0,1,.15-.26,4.25,4.25,0,0,0,1.77-3.4.3.3,0,0,1,.15-.26L314,312.46a.3.3,0,0,1,.29,0,.29.29,0,0,1,.15.26,1.43,1.43,0,0,0,.52,1.29,1,1,0,0,0,1-.1.3.3,0,0,1,.29,0,.29.29,0,0,1,.15.26V330.5a.28.28,0,0,1-.15.26,4.28,4.28,0,0,0-1.77,3.41.3.3,0,0,1-.15.26l-22.8,13.16A.28.28,0,0,1,291.31,347.63Zm-1.15-2.28a1.33,1.33,0,0,1,.64.17,1.76,1.76,0,0,1,.77,1.32L313.82,334a4.89,4.89,0,0,1,1.92-3.65V314.63a1.37,1.37,0,0,1-1.11-.1,1.8,1.8,0,0,1-.78-1.32L291.6,326.06a5,5,0,0,1-1.91,3.66v15.71A1.6,1.6,0,0,1,290.16,345.35Z" style="fill:#263238"></path><polygon points="324.17 249.36 321.02 251.18 321.02 333.99 324.17 336.09 324.17 249.36" style="opacity:0.15"></polygon><polygon points="321.02 333.99 325.51 336.86 284.4 360.6 284.42 355.12 321.02 333.99" style="fill:#F59E0B"></polygon><polygon points="321.02 333.99 325.51 336.86 284.4 360.6 284.42 355.12 321.02 333.99" style="fill:#fff;opacity:0.8"></polygon><polygon points="314.23 260.61 289.68 274.82 289.66 321.43 314.23 307.21 314.23 260.61" style="fill:#F59E0B"></polygon><polygon points="314.23 260.61 289.68 274.82 289.66 321.43 314.23 307.21 314.23 260.61" style="fill:#fff;opacity:0.8"></polygon><polygon points="300.5 315.15 302.01 316.03 289.66 323.18 289.66 321.43 300.5 315.15" style="fill:#37474f"></polygon><polygon points="314.23 307.21 314.23 260.61 315.75 259.73 315.75 308.09 314.23 307.21" style="fill:#263238"></polygon><polygon points="314.23 307.21 315.75 308.09 303.51 315.17 303.51 313.41 314.23 307.21" style="fill:#37474f"></polygon><polygon points="302.01 316.03 303.51 315.17 303.51 266.81 302.01 267.69 302.01 316.03" style="fill:#455a64"></polygon><polygon points="302.01 316.03 300.5 315.15 300.5 268.56 302.01 267.69 302.01 316.03" style="fill:#263238"></polygon><polygon points="302 292.28 300.51 291.42 289.66 297.7 289.66 299.43 302 292.28" style="fill:#455a64"></polygon><polygon points="302 292.28 302 294.03 289.66 301.18 289.66 299.43 302 292.28" style="fill:#263238"></polygon><polygon points="315.74 284.34 314.24 283.48 303.51 289.69 303.51 291.42 315.74 284.34" style="fill:#455a64"></polygon><polygon points="315.74 284.34 315.74 286.09 303.51 293.16 303.51 291.42 315.74 284.34" style="fill:#263238"></polygon><polygon points="321.02 251.18 321.02 254.39 284.4 275.53 284.4 272.33 321.02 251.18" style="opacity:0.1"></polygon><polygon points="324.17 336.09 325.51 336.86 325.51 248.59 324.17 249.36 324.17 336.09" style="fill:#F59E0B"></polygon><polygon points="324.17 336.09 325.51 336.86 325.51 248.59 324.17 249.36 324.17 336.09" style="opacity:0.2"></polygon><polygon points="325.51 336.86 330.82 333.8 330.82 239.41 279.1 269.26 279.1 363.66 284.4 360.6 284.4 272.33 325.51 248.59 325.51 336.86" style="fill:#F59E0B"></polygon><polygon points="330.82 239.41 279.1 269.26 277.78 268.5 329.5 238.64 330.82 239.41" style="fill:#F59E0B"></polygon><polygon points="330.82 239.41 279.1 269.26 277.78 268.5 329.5 238.64 330.82 239.41" style="fill:#fff;opacity:0.5"></polygon><polygon points="279.1 363.66 279.1 269.26 277.78 268.5 277.78 362.9 279.1 363.66" style="fill:#F59E0B"></polygon><polyline points="277.78 268.5 277.78 362.9 279.1 363.66 279.1 269.26" style="opacity:0.2"></polyline></g><g id="freepik--Closed--inject-70"><path d="M291.78,283.39l6.64-3.84c.39-.22.71,0,.71.42v4.56a1.6,1.6,0,0,1-.71,1.24l-6.64,3.83c-.4.23-.72,0-.72-.41v-4.56A1.56,1.56,0,0,1,291.78,283.39Z" style="opacity:0.15"></path><path d="M292,283.58l6.64-3.83c.39-.23.72-.05.72.41v4.56a1.6,1.6,0,0,1-.72,1.24L292,289.79c-.39.23-.71,0-.71-.41v-4.56A1.59,1.59,0,0,1,292,283.58Z" style="fill:#455a64"></path><path d="M294,282.92h0c-.05,0-.08-.06-.07-.1l1.35-5.89a.08.08,0,0,1,.08-.07h0a.08.08,0,0,1,.08.06l1.35,4.34a.09.09,0,0,1-.06.1.08.08,0,0,1-.1-.05l-1.26-4.05-1.27,5.59A.09.09,0,0,1,294,282.92Z" style="fill:#263238"></path><path d="M292.35,286.59c0-1.09.26-1.79.78-2.09.25-.14.45-.12.58.07a2.16,2.16,0,0,1,.2,1.12,3.91,3.91,0,0,1-.2,1.36,1.4,1.4,0,0,1-.58.73C292.61,288.08,292.35,287.68,292.35,286.59Zm1,.4a1.32,1.32,0,0,0,.09-.38,3.8,3.8,0,0,0,0-.65,3.12,3.12,0,0,0,0-.6.44.44,0,0,0-.09-.26.15.15,0,0,0-.18,0,.48.48,0,0,0-.17.2,1.2,1.2,0,0,0-.1.37,5.35,5.35,0,0,0,0,.65,4.11,4.11,0,0,0,0,.6.5.5,0,0,0,.1.27.15.15,0,0,0,.17,0A.55.55,0,0,0,293.31,287Z" style="fill:#fafafa"></path><path d="M294.18,287v-2.89a.33.33,0,0,1,0-.15.28.28,0,0,1,.09-.1l.52-.29a.39.39,0,0,1,.41,0q.18.09.18.69a2,2,0,0,1-.1.68,1.32,1.32,0,0,1-.24.43.86.86,0,0,1-.23.21l-.2.12v1.06a.29.29,0,0,1-.18.25l-.1.06C294.24,287.11,294.18,287.1,294.18,287Zm.61-2a.26.26,0,0,0,.12-.16.81.81,0,0,0,0-.35c0-.15,0-.24,0-.28a.08.08,0,0,0-.12,0l-.15.09v.81Z" style="fill:#fafafa"></path><path d="M295.65,286.24s0-.05,0-.12v-2.84a.33.33,0,0,1,0-.15.18.18,0,0,1,.08-.09l.88-.51s.05,0,.06,0a.32.32,0,0,1,0,.16v.14a.53.53,0,0,1,0,.19.15.15,0,0,1-.06.09l-.52.3v.67l.46-.27s.05,0,.06,0,0,.08,0,.16v.14a.53.53,0,0,1,0,.19.15.15,0,0,1-.06.09l-.46.27v.74l.52-.31s.05,0,.06,0a.32.32,0,0,1,0,.16v.15a.44.44,0,0,1,0,.18q0,.08-.06.09l-.88.51S295.67,286.26,295.65,286.24Z" style="fill:#fafafa"></path><path d="M297,285.39v-2.93a.26.26,0,0,1,.17-.24l.08-.05a.19.19,0,0,1,.09,0,.14.14,0,0,1,.06.07l.53,1.18a3,3,0,0,1,.11.3h0a2.88,2.88,0,0,1,0-.35v-1.46a.29.29,0,0,1,.18-.25l.07,0c.11-.07.17-.05.17.05v2.93a.29.29,0,0,1-.17.24l-.06,0-.1,0a.14.14,0,0,1-.06-.07l-.57-1.23a2.08,2.08,0,0,1-.08-.24v0c0,.13,0,.23,0,.3v1.5a.3.3,0,0,1-.17.25l-.07,0C297,285.5,297,285.49,297,285.39Z" style="fill:#fafafa"></path></g></g><g id="freepik--Window--inject-70"><g id="freepik--window--inject-70"><g id="freepik--door--inject-70"><polygon points="266.37 329.95 211.04 361.89 211.04 312.06 266.37 280.11 266.37 329.95" style="fill:#fff;opacity:0.9500000000000001"></polygon><polygon points="266.37 280.11 266.37 282.98 211.04 314.93 211.04 312.06 266.37 280.11" style="opacity:0.1"></polygon><polygon points="266.37 332.1 267 332.45 267 279.75 266.37 280.11 266.37 332.1" style="fill:#F59E0B"></polygon><polygon points="266.37 332.1 267 332.45 267 279.75 266.37 280.11 266.37 332.1" style="opacity:0.2"></polygon><polygon points="269.49 275.44 208.56 310.62 207.94 310.26 268.87 275.08 269.49 275.44" style="fill:#F59E0B"></polygon><polygon points="269.49 275.44 208.56 310.62 207.94 310.26 268.87 275.08 269.49 275.44" style="fill:#fff;opacity:0.30000000000000004"></polygon><polygon points="267 329.58 211.04 361.89 211.04 361.17 266.37 329.22 267 329.58" style="fill:#F59E0B"></polygon><polygon points="267 329.58 211.04 361.89 211.04 361.17 266.37 329.22 267 329.58" style="fill:#fff;opacity:0.5"></polygon><polygon points="208.56 366.2 208.56 310.62 207.94 310.26 207.94 365.84 208.56 366.2" style="fill:#F59E0B"></polygon><polyline points="207.94 310.26 207.94 365.84 208.56 366.2 208.56 310.62" style="opacity:0.2"></polyline><path d="M208.56,310.62V366.2l2.48-1.44,56-32.31h0l2.49-1.43V275.44ZM211,361.89V312.05l56-32.3v49.84Z" style="fill:#F59E0B"></path></g><polygon points="257.3 285.35 257.3 323.98 211.04 350.69 211.04 312.06 257.3 285.35" style="fill:#F59E0B"></polygon><polygon points="257.3 285.35 257.3 323.98 211.04 350.69 211.04 312.06 257.3 285.35" style="opacity:0.35000000000000003"></polygon><polygon points="266.37 280.11 266.37 329.22 257.3 323.98 257.3 285.35 266.37 280.11" style="fill:#F59E0B"></polygon><polygon points="266.37 280.11 266.37 329.22 257.3 323.98 257.3 285.35 266.37 280.11" style="fill:#fff;opacity:0.6000000000000001"></polygon><polygon points="266.37 329.22 211.04 361.17 211.04 350.69 257.3 323.98 266.37 329.22" style="fill:#F59E0B"></polygon><polygon points="266.37 329.22 211.04 361.17 211.04 350.69 257.3 323.98 266.37 329.22" style="fill:#fff;opacity:0.8"></polygon><polygon points="228.2 344.32 244.45 334.94 248.51 337.28 232.26 346.66 228.2 344.32" style="opacity:0.30000000000000004"></polygon><polygon points="245.9 330.79 256.45 324.7 264.43 329.29 253.87 335.38 245.9 330.79" style="opacity:0.30000000000000004"></polygon><polygon points="211.04 351.09 220.83 345.44 228.8 350.03 218.25 356.12 211.04 351.97 211.04 351.09" style="opacity:0.30000000000000004"></polygon><g id="freepik--book--inject-70"><path d="M217.74,354.92l.24-.14a.39.39,0,0,0-.2,0C217.72,354.79,217.74,354.92,217.74,354.92Z"></path><path d="M217.58,354.77a.29.29,0,0,1,.42,0c.23.21.24.42.33.41a9.48,9.48,0,0,0,.1-1.68l-.91.84Z"></path><path d="M227.05,348.66h0l-.15-.08-6.24-3.6-9.09,5.88c-.15.09-.18.21-.06.28l.21.12,5.84,3.37,0,0Z" style="fill:#263238"></path><path d="M218.36,352.71l-.46-.1v1.81c.28.12.45.23.48.45Z" style="fill:#F59E0B"></path><path d="M217.7,354.45l-5.77-3.34a.42.42,0,0,1-.19-.31V349l5.84,3.4a.54.54,0,0,0,.27.33c.21.08.05.16.05.16v1.52C217.73,354.4,217.7,354.45,217.7,354.45Z" style="fill:#ebebeb"></path><path d="M218.24,352.64c-.06,0-.11,0-.11,0v.06c0,.06-.1.06-.21,0s-.22-.18-.22-.24v-.06s-.08-.1-.18-.16l9.4-5.38.15.08a.16.16,0,0,1,0,.08v.06c0,.06.1.16.22.23s.21.07.21,0v-.06s.05,0,.11,0Z" style="fill:#263238"></path><path d="M227.05,346.94h0l-.15-.08-6.24-3.61-9.09,5.25c-.15.09-.18.22-.06.28l.21.13,5.84,3.51Z" style="fill:#37474f"></path><path d="M227.53,347.2l-9.39,5.42.33.26,9.36-5.41a.35.35,0,0,0-.13-.17Z" style="fill:#37474f"></path><path d="M227.79,349.9h0l0,0v0a.08.08,0,0,0,0,0,.14.14,0,0,0,0-.06s0-.05,0-.07v-.08a.22.22,0,0,0,0-.08V348a1.37,1.37,0,0,0-.09-.48l-9.36,5.41,0,2.43,9.36-5.41Z" style="fill:#455a64"></path><path d="M219.54,352.26l1.13-.65a5.29,5.29,0,0,1,0,2.41l-1.13.65A5.29,5.29,0,0,0,219.54,352.26Z" style="fill:#F59E0B"></path><path d="M219.54,352.26l1.13-.65a5.29,5.29,0,0,1,0,2.41l-1.13.65A5.29,5.29,0,0,0,219.54,352.26Z" style="fill:#fff;opacity:0.4"></path><path d="M221.09,351.37l.42-.25a5.29,5.29,0,0,1,0,2.41l-.42.24A5.25,5.25,0,0,0,221.09,351.37Z" style="fill:#F59E0B"></path><path d="M221.09,351.37l.42-.25a5.29,5.29,0,0,1,0,2.41l-.42.24A5.25,5.25,0,0,0,221.09,351.37Z" style="fill:#fff;opacity:0.4"></path><path d="M225.89,348.59l.42-.24a5.16,5.16,0,0,1,0,2.41l-.42.24A5.29,5.29,0,0,0,225.89,348.59Z" style="fill:#F59E0B"></path><path d="M225.89,348.59l.42-.24a5.16,5.16,0,0,1,0,2.41l-.42.24A5.29,5.29,0,0,0,225.89,348.59Z" style="fill:#fff;opacity:0.4"></path><path d="M218.55,353.35h-.2a.91.91,0,0,0-.11-.46.24.24,0,0,1-.17.06.53.53,0,0,1-.26-.08,1,1,0,0,1-.24-.21v0a.45.45,0,0,1-.07-.18l-5.53-3.2-.19-.11-.24-.13a.13.13,0,0,1-.07-.11v-.25a.12.12,0,0,0,.07.11h0l.63.36,5.35,3.09c.1.06.18.13.18.16v.06a.19.19,0,0,0,.05.1.61.61,0,0,0,.17.14c.11.07.21.07.21,0v-.06s.05,0,.11,0l.1.07C218.46,352.77,218.55,353.06,218.55,353.35Z" style="fill:#37474f"></path><path d="M218.35,353.35v1.55s0,.05,0,.07v0h0a.67.67,0,0,0-.58-.48.29.29,0,0,0-.18.07h0l0,0-5.35-3.09-.31-.18-.08-.05-.26-.15a.11.11,0,0,1-.06-.1v.25a.14.14,0,0,0,0,.09h0l.1.06.06,0,.1.06.07,0,0,0,.08,0,4.25,2.45,1.36.79c.09.05.17.07.18.05h0v-.06c0-.07.09-.07.21,0s.17.15.17.21v.07s0,.07,0,.08l0,0,.07,0,.08.05a.11.11,0,0,0,.11,0h0l0,0h0s0,0,0-.05a.64.64,0,0,0,0-.07s0,0,0-.07a.06.06,0,0,0,0,0v-1.67Z" style="fill:#37474f"></path></g><g id="freepik--book--inject-70"><path d="M247.21,330.75l.27-.14-.24-.06A.18.18,0,0,0,247.21,330.75Z" style="fill:#F59E0B"></path><path d="M247.21,330.75l.27-.14-.24-.06A.18.18,0,0,0,247.21,330.75Z" style="opacity:0.5"></path><path d="M254.3,334.33a.64.64,0,0,1-.54,0l-6.11-3.53,9.15-5.2.21-.12,6.11,3.44c.15.09.15.23,0,.31Z" style="fill:#F59E0B"></path><path d="M252,327.75,249.88,329l-1.38-.79-1.61.92v1.07c0,.14.16.34.22.31a2,2,0,0,1,.3.11,2.32,2.32,0,0,1,.45.33l4.89-2.74Z" style="fill:#F59E0B"></path><path d="M252,327.75,249.88,329l-1.38-.79-1.61.92v1.07c0,.14.16.34.22.31a2,2,0,0,1,.3.11,2.32,2.32,0,0,1,.45.33l4.89-2.74Z" style="opacity:0.15"></path><path d="M247.77,329.23v1.16h0a.61.61,0,0,0-.26-.08.33.33,0,0,0-.17,0V329Z" style="fill:#37474f"></path><path d="M248.07,330.79a.34.34,0,0,0-.07-.19l-.08-.09,0,0,0,0,0,0-.06,0v-1.16l.3.17h0Z" style="fill:#e0e0e0"></path><path d="M246.89,330.17c0,.14.16.34.22.31h0l.21-.14v-.88l-.21-.37-.12,0-.1.05Z" style="opacity:0.4"></path><path d="M254,332.85v1.32a.34.34,0,0,1-.18,0l-.67-.39-5.11-2.95V329.4Z" style="fill:#ebebeb"></path><path d="M263,327.86v1a.41.41,0,0,1-.18.32l-7.91,4.56-.67.39a.34.34,0,0,1-.18,0V333Z" style="fill:#f5f5f5"></path><path d="M256.8,323.88l-9.15,5.28v.12c0,.07-.1.1-.22,0s-.21-.16-.21-.27v-.12l9.32-5.38,0,0a.07.07,0,0,1,0,.05v.06C256.58,323.7,256.68,323.81,256.8,323.88Z" style="fill:#F59E0B"></path><path d="M256.8,323.88l-9.15,5.28v.12c0,.07-.1.1-.22,0s-.21-.16-.21-.27v-.12l9.32-5.38,0,0a.07.07,0,0,1,0,.05v.06C256.58,323.7,256.68,323.81,256.8,323.88Z" style="opacity:0.1"></path><path d="M253.76,332.69l-6-3.45a.31.31,0,0,0-.17-.06l0,0,9.15-5.28.1-.07a.36.36,0,0,1,.29.05l5.93,3.42a.17.17,0,0,1,0,.32l-8.82,5.09A.64.64,0,0,1,253.76,332.69Z" style="fill:#F59E0B"></path><path d="M256.57,323.52l0,0-9.32,5.38,0,0,0,0-.07,0-.08,0a.09.09,0,0,0-.11,0h0l0,0s0,0,0,0,0,0,0,.06a.17.17,0,0,0,0,.07.09.09,0,0,0,0,.05v0s0,.05,0,.08v-.26a.58.58,0,0,1,.28-.42l8.82-5.09a.55.55,0,0,1,.48,0l.11.07h0l0,0h0Z" style="fill:#F59E0B"></path><path d="M253.76,334.33l-.37-.22-5.53-3.19a.39.39,0,0,0-.08-.2.79.79,0,0,0-.24-.21.53.53,0,0,0-.26-.08.29.29,0,0,0-.17.05A.88.88,0,0,1,247,330h-.21a.86.86,0,0,0,.22.65l.1.06c.06,0,.11,0,.11,0v-.06c0-.06.1-.06.21,0s.22.17.22.23V331s.08.11.18.16l5.35,3.09.58.34h0a.57.57,0,0,0,.27.06v-.24A.57.57,0,0,1,253.76,334.33Z" style="fill:#F59E0B"></path><path d="M253.76,334.33l-.37-.22-5.53-3.19a.39.39,0,0,0-.08-.2.79.79,0,0,0-.24-.21.53.53,0,0,0-.26-.08.29.29,0,0,0-.17.05A.88.88,0,0,1,247,330h-.21a.86.86,0,0,0,.22.65l.1.06c.06,0,.11,0,.11,0v-.06c0-.06.1-.06.21,0s.22.17.22.23V331s.08.11.18.16l5.35,3.09.58.34h0a.57.57,0,0,0,.27.06v-.24A.57.57,0,0,1,253.76,334.33Z" style="opacity:0.30000000000000004"></path><path d="M253.76,332.69h0l-.37-.22L249.14,330l-1.36-.78c-.09-.06-.17-.08-.18-.05h0v.07c0,.06-.09.06-.21,0s-.17-.15-.17-.22V329s0-.07,0-.07l0,0-.07,0-.08,0a.09.09,0,0,0-.11,0h0l0,0v0s0,0,0,0,0,0,0,.06a.17.17,0,0,0,0,.07.09.09,0,0,0,0,.05v0s0,.05,0,.08V330H247v-.83s0,0,0-.06v-.06h0a.59.59,0,0,0,.32.39.5.5,0,0,0,.26.08.24.24,0,0,0,.18-.07h0l0,0,5.35,3.09.58.33h0a.6.6,0,0,0,.27.07v-.25A.57.57,0,0,1,253.76,332.69Z" style="fill:#F59E0B"></path><path d="M253.76,332.69h0l-.37-.22L249.14,330l-1.36-.78c-.09-.06-.17-.08-.18-.05h0v.07c0,.06-.09.06-.21,0s-.17-.15-.17-.22V329s0-.07,0-.07l0,0-.07,0-.08,0a.09.09,0,0,0-.11,0h0l0,0v0s0,0,0,0,0,0,0,.06a.17.17,0,0,0,0,.07.09.09,0,0,0,0,.05v0s0,.05,0,.08V330H247v-.83s0,0,0-.06v-.06h0a.59.59,0,0,0,.32.39.5.5,0,0,0,.26.08.24.24,0,0,0,.18-.07h0l0,0,5.35,3.09.58.33h0a.6.6,0,0,0,.27.07v-.25A.57.57,0,0,1,253.76,332.69Z" style="opacity:0.30000000000000004"></path><path d="M263.23,327.44v.24a.19.19,0,0,1-.1.16h0l-8.24,4.76-.58.33h0a.57.57,0,0,1-.27.07v-.25a.57.57,0,0,0,.27-.06l.37-.21h0l8.45-4.88A.19.19,0,0,0,263.23,327.44Z" style="fill:#F59E0B"></path><path d="M263.23,327.44v.24a.19.19,0,0,1-.1.16h0l-8.24,4.76-.58.33h0a.57.57,0,0,1-.27.07v-.25a.57.57,0,0,0,.27-.06l.37-.21h0l8.45-4.88A.19.19,0,0,0,263.23,327.44Z" style="opacity:0.2"></path><path d="M263.23,329.07v.25a.17.17,0,0,1-.1.15h0l-8.24,4.75-.58.34h0a.57.57,0,0,1-.27.06v-.24a.57.57,0,0,0,.27-.06l.37-.22h0l8.45-4.88A.18.18,0,0,0,263.23,329.07Z" style="fill:#F59E0B"></path><path d="M263.23,329.07v.25a.17.17,0,0,1-.1.15h0l-8.24,4.75-.58.34h0a.57.57,0,0,1-.27.06v-.24a.57.57,0,0,0,.27-.06l.37-.22h0l8.45-4.88A.18.18,0,0,0,263.23,329.07Z" style="opacity:0.2"></path></g><g id="freepik--book--inject-70"><polygon points="211.95 348.29 217.5 351.45 226.66 346.19 221.12 343.02 211.95 348.29" style="fill:#F59E0B"></polygon><path d="M217.56,351.21l-5.35-3.07a2.21,2.21,0,0,0,0-1.39l5.32,3A5.28,5.28,0,0,1,217.56,351.21Z" style="fill:#f5f5f5"></path><path d="M217.22,349.35a1.13,1.13,0,0,1,.52.89v1c0,.33-.23.46-.52.3l-5.27-3v-.26l5.2,3c.17.1.31,0,.31-.17v-1a.66.66,0,0,0-.31-.53l-5.2-3v-.29Z" style="fill:#F59E0B"></path><path d="M217.22,349.35a1.13,1.13,0,0,1,.52.89v1c0,.33-.23.46-.52.3l-5.27-3v-.26l5.2,3c.17.1.31,0,.31-.17v-1a.66.66,0,0,0-.31-.53l-5.2-3v-.29Z" style="fill:#fff;opacity:0.6000000000000001"></path><path d="M212,346.33l9.17-5.26,5.27,3a1.16,1.16,0,0,1,.52.89v1c0,.17-.06.28-.16.33l-9.16,5.26a.35.35,0,0,0,.15-.33v-1a1.13,1.13,0,0,0-.52-.89Z" style="fill:#F59E0B"></path><path d="M212,346.33l9.17-5.26,5.27,3a1.16,1.16,0,0,1,.52.89v1c0,.17-.06.28-.16.33l-9.16,5.26a.35.35,0,0,0,.15-.33v-1a1.13,1.13,0,0,0-.52-.89Z" style="fill:#fff;opacity:0.4"></path><path d="M217.59,349.74a1.07,1.07,0,0,1,.15.5v1a.35.35,0,0,1-.15.33l9.16-5.26c.1,0,.15-.16.16-.33v-1a1,1,0,0,0-.16-.51Z" style="fill:#F59E0B"></path><path d="M217.59,349.74a1.07,1.07,0,0,1,.15.5v1a.35.35,0,0,1-.15.33l9.16-5.26c.1,0,.15-.16.16-.33v-1a1,1,0,0,0-.16-.51Z" style="fill:#fff;opacity:0.7000000000000001"></path></g><g id="freepik--book--inject-70"><polygon points="212.02 345.93 217.17 348.86 225.67 343.98 220.52 341.05 212.02 345.93" style="fill:#F59E0B"></polygon><polygon points="212.02 345.93 217.17 348.86 225.67 343.98 220.52 341.05 212.02 345.93" style="opacity:0.35000000000000003"></polygon><path d="M217.23,348.64l-5-2.85a2.11,2.11,0,0,0,0-1.29l4.93,2.82A5.19,5.19,0,0,1,217.23,348.64Z" style="fill:#fff"></path><path d="M216.92,346.92a1,1,0,0,1,.47.82v1c0,.3-.21.42-.47.27l-4.9-2.81v-.23l4.83,2.75c.16.09.29,0,.29-.17v-.88a.63.63,0,0,0-.29-.5L212,344.38v-.27Z" style="fill:#F59E0B"></path><path d="M216.92,346.92a1,1,0,0,1,.47.82v1c0,.3-.21.42-.47.27l-4.9-2.81v-.23l4.83,2.75c.16.09.29,0,.29-.17v-.88a.63.63,0,0,0-.29-.5L212,344.38v-.27Z" style="opacity:0.2"></path><path d="M212,344.11l8.5-4.88,4.89,2.81a1,1,0,0,1,.48.82v1a.33.33,0,0,1-.14.31l-8.5,4.87a.31.31,0,0,0,.14-.3v-1a1,1,0,0,0-.47-.82Z" style="fill:#F59E0B"></path><path d="M217.25,347.27a.94.94,0,0,1,.14.47v1a.31.31,0,0,1-.14.3l8.5-4.87a.33.33,0,0,0,.14-.31v-1a.94.94,0,0,0-.14-.47Z" style="fill:#F59E0B"></path><path d="M217.25,347.27a.94.94,0,0,1,.14.47v1a.31.31,0,0,1-.14.3l8.5-4.87a.33.33,0,0,0,.14-.31v-1a.94.94,0,0,0-.14-.47Z" style="opacity:0.1"></path><path d="M218.38,346.62l.34-.2a2.72,2.72,0,0,1,0,1.74l-.34.19A2.69,2.69,0,0,0,218.38,346.62Z" style="fill:#455a64"></path><path d="M224.13,343.32l.34-.19a2.76,2.76,0,0,1,0,1.73l-.34.2A2.72,2.72,0,0,0,224.13,343.32Z" style="fill:#455a64"></path></g><g id="freepik--book--inject-70"><path d="M253.47,331.49l.24-.14a.39.39,0,0,0-.2,0C253.45,331.37,253.47,331.49,253.47,331.49Z"></path><path d="M253.31,331.34a.29.29,0,0,1,.42,0c.23.21.24.42.34.41a10.52,10.52,0,0,0,.09-1.68l-.9.84Z" style="fill:#F59E0B"></path><path d="M253.31,331.34a.29.29,0,0,1,.42,0c.23.21.24.42.34.41a10.52,10.52,0,0,0,.09-1.68l-.9.84Z" style="opacity:0.30000000000000004"></path><path d="M262.79,325.23h0l-.15-.09-6.23-3.6-9.1,5.88c-.15.09-.17.22,0,.28l.21.13,5.83,3.36,0,0Z" style="fill:#F59E0B"></path><path d="M262.79,325.23h0l-.15-.09-6.23-3.6-9.1,5.88c-.15.09-.17.22,0,.28l.21.13,5.83,3.36,0,0Z" style="opacity:0.2"></path><path d="M254.09,329.28l-.45-.1V331c.27.12.44.23.47.46Z" style="fill:#455a64"></path><path d="M253.44,331l-5.78-3.34a.4.4,0,0,1-.18-.31v-1.79l5.83,3.4a.53.53,0,0,0,.28.33c.2.08,0,.16,0,.16V331C253.46,331,253.44,331,253.44,331Z" style="fill:#ebebeb"></path><path d="M254,329.22c-.06,0-.11,0-.11,0v.06c0,.06-.09.06-.21,0s-.22-.17-.22-.24v0s-.08-.11-.18-.17l9.4-5.38.15.08,0,.08v.06c0,.06.09.17.21.23s.21.08.21,0v-.05s.05,0,.11,0Z" style="fill:#F59E0B"></path><path d="M254,329.22c-.06,0-.11,0-.11,0v.06c0,.06-.09.06-.21,0s-.22-.17-.22-.24v0s-.08-.11-.18-.17l9.4-5.38.15.08,0,.08v.06c0,.06.09.17.21.23s.21.08.21,0v-.05s.05,0,.11,0Z" style="fill:#fff;opacity:0.25"></path><path d="M262.79,323.51h0l-.15-.08-6.23-3.6-9.1,5.25c-.15.08-.17.21,0,.28l.21.12,5.83,3.51Z" style="fill:#F59E0B"></path><path d="M262.79,323.51h0l-.15-.08-6.23-3.6-9.1,5.25c-.15.08-.17.21,0,.28l.21.12,5.83,3.51Z" style="fill:#fff;opacity:0.4"></path><path d="M263.26,323.77l-9.39,5.42.33.26,9.36-5.4a.39.39,0,0,0-.12-.18Z" style="fill:#F59E0B"></path><path d="M263.26,323.77l-9.39,5.42.33.26,9.36-5.4a.39.39,0,0,0-.12-.18Z" style="fill:#fff;opacity:0.4"></path><path d="M263.53,326.47h0l0,0v0l0-.05s0,0,0-.06,0-.05,0-.07v-1.71a1.09,1.09,0,0,0-.09-.47l-9.36,5.4,0,2.43,9.36-5.4Z" style="fill:#F59E0B"></path><g style="opacity:0.7000000000000001"><path d="M263.53,326.47h0l0,0v0l0-.05s0,0,0-.06,0-.05,0-.07v-1.71a1.09,1.09,0,0,0-.09-.47l-9.36,5.4,0,2.43,9.36-5.4Z" style="fill:#fff"></path></g><path d="M255,329l1.13-.65a5.44,5.44,0,0,1,0,2.41l-1.13.65A5.44,5.44,0,0,0,255,329Z" style="fill:#fafafa"></path><path d="M261.26,325.37l1.13-.65a5.29,5.29,0,0,1,0,2.41l-1.13.65A5.16,5.16,0,0,0,261.26,325.37Z" style="fill:#fafafa"></path><path d="M254.29,329.92h-.21a1,1,0,0,0-.1-.45.35.35,0,0,1-.18,0,.57.57,0,0,1-.26-.08.79.79,0,0,1-.24-.21v0a.32.32,0,0,1-.06-.18l-5.54-3.19-.18-.11-.24-.14a.14.14,0,0,1-.08-.11v-.24a.14.14,0,0,0,.08.11h0l.63.36,5.35,3.09c.1.06.19.13.19.17v0a.14.14,0,0,0,0,.1.61.61,0,0,0,.17.14c.12.07.21.07.21,0v-.06s0,0,.11,0l.1.06A.82.82,0,0,1,254.29,329.92Z" style="fill:#F59E0B"></path><path d="M254.29,329.92h-.21a1,1,0,0,0-.1-.45.35.35,0,0,1-.18,0,.57.57,0,0,1-.26-.08.79.79,0,0,1-.24-.21v0a.32.32,0,0,1-.06-.18l-5.54-3.19-.18-.11-.24-.14a.14.14,0,0,1-.08-.11v-.24a.14.14,0,0,0,.08.11h0l.63.36,5.35,3.09c.1.06.19.13.19.17v0a.14.14,0,0,0,0,.1.61.61,0,0,0,.17.14c.12.07.21.07.21,0v-.06s0,0,.11,0l.1.06A.82.82,0,0,1,254.29,329.92Z" style="fill:#fff;opacity:0.6000000000000001"></path><path d="M254.08,329.92v1.67h0a.61.61,0,0,0-.32-.4.57.57,0,0,0-.25-.08.29.29,0,0,0-.19.07h0l0,0-5.35-3.09-.3-.18-.09-.05-.26-.15a.11.11,0,0,1-.06-.1v.25a.11.11,0,0,0,.06.09h0l.09.06.06,0a.6.6,0,0,0,.11.06l.06,0,0,0,.08,0,4.25,2.46,1.36.78c.1.06.18.08.18.05h0v-.06c0-.07.1-.07.21,0s.17.15.17.22v.06a.12.12,0,0,0,0,.08l0,0,.07,0,.08.05a.11.11,0,0,0,.11,0h0l0,0h0s0,0,0-.05a.14.14,0,0,0,0-.06s0,0,0-.08v-.07a.25.25,0,0,0,0-.08v-1.56Z" style="fill:#F59E0B"></path><path d="M254.08,329.92v1.67h0a.61.61,0,0,0-.32-.4.57.57,0,0,0-.25-.08.29.29,0,0,0-.19.07h0l0,0-5.35-3.09-.3-.18-.09-.05-.26-.15a.11.11,0,0,1-.06-.1v.25a.11.11,0,0,0,.06.09h0l.09.06.06,0a.6.6,0,0,0,.11.06l.06,0,0,0,.08,0,4.25,2.46,1.36.78c.1.06.18.08.18.05h0v-.06c0-.07.1-.07.21,0s.17.15.17.22v.06a.12.12,0,0,0,0,.08l0,0,.07,0,.08.05a.11.11,0,0,0,.11,0h0l0,0h0s0,0,0-.05a.14.14,0,0,0,0-.06s0,0,0-.08v-.07a.25.25,0,0,0,0-.08v-1.56Z" style="fill:#fff;opacity:0.6000000000000001"></path></g><g id="freepik--book--inject-70"><polygon points="248.2 325.13 253.34 328.07 261.84 323.19 256.7 320.26 248.2 325.13"></polygon><path d="M253.4,327.84l-5-2.84a2,2,0,0,0,0-1.29l4.93,2.82A4.54,4.54,0,0,1,253.4,327.84Z" style="fill:#fff"></path><path d="M253.09,326.12a1.08,1.08,0,0,1,.48.83v.95c0,.31-.22.43-.48.28l-4.89-2.81v-.24l4.82,2.76a.18.18,0,0,0,.29-.17v-.89a.62.62,0,0,0-.29-.49l-4.82-2.75v-.27Z" style="fill:#263238"></path><path d="M248.2,323.32l8.5-4.88,4.89,2.81a1.06,1.06,0,0,1,.48.82v1a.34.34,0,0,1-.14.3l-8.5,4.88a.34.34,0,0,0,.14-.3v-1a1.08,1.08,0,0,0-.48-.83Z" style="fill:#455a64"></path><path d="M253.43,326.48a1,1,0,0,1,.14.47v1a.34.34,0,0,1-.14.3l8.5-4.88a.34.34,0,0,0,.14-.3v-1a1.06,1.06,0,0,0-.14-.47Z" style="fill:#37474f"></path><path d="M254.56,325.83l.34-.2a2.87,2.87,0,0,1,0,1.74l-.34.19A2.69,2.69,0,0,0,254.56,325.83Z" style="fill:#F59E0B"></path><path d="M260.31,322.53l.33-.2a2.72,2.72,0,0,1,0,1.74l-.33.19A2.76,2.76,0,0,0,260.31,322.53Z" style="fill:#F59E0B"></path></g><g id="freepik--book--inject-70"><polygon points="229.74 335.38 243.98 327.16 245.37 336.86 231.13 345.08 229.74 335.38" style="fill:#F59E0B"></polygon><polygon points="229.74 335.38 243.98 327.16 245.37 336.86 231.13 345.08 229.74 335.38" style="opacity:0.15"></polygon><path d="M236.89,331.47l.25.11a3.27,3.27,0,0,0,2.14-.35l5.66-3.26-1.14-.49Z" style="fill:#fafafa"></path><path d="M244.94,328l-5.66,3.26a3.27,3.27,0,0,1-2.14.35l-.25-.11,1.33,9.28h0l.25.11a3.27,3.27,0,0,0,2.14-.35l5.66-3.26h0Z" style="fill:#fafafa"></path><path d="M244.94,328l-5.66,3.26a3.27,3.27,0,0,1-2.14.35l-.25-.11,1.33,9.28h0l.25.11a3.27,3.27,0,0,0,2.14-.35l5.66-3.26Z" style="fill:#f5f5f5"></path><path d="M238.5,331.53a2.91,2.91,0,0,1-1.36.05l-.25-.11,1.33,9.28h0l.25.11a2.87,2.87,0,0,0,1.35-.05Z" style="fill:#e6e6e6"></path><polygon points="229.5 335.28 229.74 335.38 231.13 345.08 230.89 344.99 229.5 335.28" style="fill:#F59E0B"></polygon><polygon points="229.5 335.28 229.74 335.38 231.13 345.08 230.89 344.99 229.5 335.28" style="opacity:0.30000000000000004"></polygon><polygon points="229.5 335.28 243.74 327.06 243.98 327.16 229.74 335.38 229.5 335.28" style="fill:#F59E0B"></polygon><path d="M237.12,331.57c.32.14.33.72-.36,1.13L231.13,336l-1.17-.49,6.93-4Z" style="fill:#fafafa"></path><polygon points="229.96 335.48 231.13 335.97 232.46 345.25 231.28 344.76 229.96 335.48" style="fill:#ebebeb"></polygon><path d="M236.76,332.7l-.26.14L231.13,336l1.17,8.2.16,1.08,5.63-3.27c.51-.3.6-.55.58-.76h0l-1.35-9.41C237.36,332.15,237.17,332.44,236.76,332.7Z" style="fill:#f5f5f5"></path><polygon points="231.84 336.67 236.66 333.89 236.91 333.74 236.88 333.55 236.63 333.69 231.81 336.47 231.84 336.67" style="fill:#e0e0e0"></polygon><polygon points="231.91 337.14 236.72 334.36 236.97 334.22 236.95 334.02 236.69 334.17 231.88 336.95 231.91 337.14" style="fill:#e0e0e0"></polygon><polygon points="231.98 337.62 236.79 334.84 237.04 334.69 237.01 334.49 236.76 334.64 231.95 337.42 231.98 337.62" style="fill:#e0e0e0"></polygon><polygon points="232.04 338.09 236.86 335.31 237.11 335.17 237.08 334.97 236.83 335.12 232.02 337.9 232.04 338.09" style="fill:#e0e0e0"></polygon><polygon points="232.11 338.57 236.93 335.79 237.18 335.64 237.15 335.44 236.9 335.59 232.08 338.37 232.11 338.57" style="fill:#e0e0e0"></polygon><polygon points="232.18 339.04 236.99 336.26 237.25 336.11 237.22 335.92 236.97 336.06 232.15 338.85 232.18 339.04" style="fill:#e0e0e0"></polygon><polygon points="232.25 339.52 237.06 336.74 237.31 336.59 237.29 336.39 237.03 336.54 232.22 339.32 232.25 339.52" style="fill:#e0e0e0"></polygon><polygon points="232.32 339.99 237.13 337.21 237.38 337.06 237.35 336.87 237.1 337.01 232.29 339.79 232.32 339.99" style="fill:#e0e0e0"></polygon><polygon points="232.38 340.46 237.2 337.68 237.45 337.54 237.42 337.34 237.17 337.49 232.35 340.27 232.38 340.46" style="fill:#e0e0e0"></polygon><polygon points="232.45 340.94 237.27 338.16 237.52 338.01 237.49 337.81 237.24 337.96 232.42 340.74 232.45 340.94" style="fill:#e0e0e0"></polygon><polygon points="232.52 341.41 237.33 338.63 237.59 338.49 237.56 338.29 237.31 338.44 232.49 341.22 232.52 341.41" style="fill:#e0e0e0"></polygon><polygon points="232.59 341.89 237.4 339.11 237.65 338.96 237.63 338.76 237.37 338.91 232.56 341.69 232.59 341.89" style="fill:#e0e0e0"></polygon><polygon points="232.66 342.36 237.47 339.58 237.72 339.44 237.69 339.24 237.44 339.38 232.63 342.17 232.66 342.36" style="fill:#e0e0e0"></polygon><polygon points="232.72 342.84 237.54 340.06 237.79 339.91 237.76 339.71 237.51 339.86 232.69 342.64 232.72 342.84" style="fill:#e0e0e0"></polygon><polygon points="232.79 343.31 237.6 340.53 237.86 340.38 237.83 340.19 237.58 340.33 232.76 343.11 232.79 343.31" style="fill:#e0e0e0"></polygon><polygon points="232.86 343.79 237.67 341 237.93 340.86 237.9 340.66 237.65 340.81 232.83 343.59 232.86 343.79" style="fill:#e0e0e0"></polygon><polygon points="232.93 344.26 237.74 341.48 237.99 341.33 237.97 341.13 237.71 341.28 232.9 344.06 232.93 344.26" style="fill:#e0e0e0"></polygon><polygon points="230.87 335.87 231.67 335.34 230.79 335.83 230.92 336.75 230.87 335.87" style="fill:#e6e6e6"></polygon><polygon points="230.29 335.61 231.87 334.7 230.35 335.64 230.56 337.51 230.29 335.61" style="fill:#e6e6e6"></polygon><polygon points="232.2 345.14 231.96 343.71 232.07 345.09 232.2 345.14" style="fill:#e6e6e6"></polygon><polygon points="231.74 344.95 231.37 342.81 231.63 344.9 231.74 344.95" style="fill:#e6e6e6"></polygon><path d="M239.41,332.1a3,3,0,0,1-.9.32l0,.2a3.4,3.4,0,0,0,.91-.33l5.06-2.93,0-.19Z" style="fill:#e0e0e0"></path><path d="M239.41,332.1a3,3,0,0,1-.9.32l0,.2a3.4,3.4,0,0,0,.91-.33l5.06-2.93,0-.19Z" style="fill:#e0e0e0"></path><path d="M239.48,332.57a3.14,3.14,0,0,1-.9.33l0,.19a3.2,3.2,0,0,0,.9-.32l5.07-2.93,0-.2Z" style="fill:#e0e0e0"></path><path d="M239.54,333.05a2.92,2.92,0,0,1-.9.32l0,.2a3.21,3.21,0,0,0,.9-.33l5.06-2.93,0-.19Z" style="fill:#e0e0e0"></path><path d="M239.61,333.52a3.21,3.21,0,0,1-.9.33l0,.19a3.2,3.2,0,0,0,.9-.32l5.06-2.93,0-.2Z" style="fill:#e0e0e0"></path><path d="M239.68,334a2.92,2.92,0,0,1-.9.32l0,.19a3,3,0,0,0,.9-.32l5.06-2.93,0-.19Z" style="fill:#e0e0e0"></path><path d="M239.75,334.47a3.33,3.33,0,0,1-.9.33l0,.19a3.2,3.2,0,0,0,.9-.32l5.07-2.93,0-.2Z" style="fill:#e0e0e0"></path><path d="M239.82,335a3.44,3.44,0,0,1-.9.32l0,.19a2.92,2.92,0,0,0,.9-.32l5.07-2.93,0-.19Z" style="fill:#e0e0e0"></path><path d="M239.88,335.42a3.21,3.21,0,0,1-.9.33l0,.19a2.93,2.93,0,0,0,.9-.33l5.06-2.93,0-.19Z" style="fill:#e0e0e0"></path><path d="M240,335.9a3.2,3.2,0,0,1-.9.32l0,.19a2.92,2.92,0,0,0,.9-.32l5.06-2.93,0-.19Z" style="fill:#e0e0e0"></path><path d="M240,336.37a2.92,2.92,0,0,1-.9.32l0,.2a3,3,0,0,0,.9-.33l5.06-2.93,0-.19Z" style="fill:#e0e0e0"></path><path d="M240.09,336.85a3.32,3.32,0,0,1-.9.32l0,.19a2.92,2.92,0,0,0,.9-.32l5.07-2.93,0-.19Z" style="fill:#e0e0e0"></path><path d="M240.15,337.32a2.92,2.92,0,0,1-.9.32l0,.2a3.21,3.21,0,0,0,.9-.33l5.07-2.93,0-.19Z" style="fill:#e0e0e0"></path><path d="M240.22,337.79a2.93,2.93,0,0,1-.9.33l0,.19a3.2,3.2,0,0,0,.9-.32l5.06-2.93,0-.2Z" style="fill:#e0e0e0"></path><path d="M240.29,338.27a2.92,2.92,0,0,1-.9.32l0,.2a3.21,3.21,0,0,0,.9-.33l5.06-2.93,0-.19Z" style="fill:#e0e0e0"></path><path d="M240.36,338.74a2.93,2.93,0,0,1-.9.33l0,.19a3.32,3.32,0,0,0,.9-.32l5.06-2.93,0-.2Z" style="fill:#e0e0e0"></path><path d="M240.43,339.22a3,3,0,0,1-.9.32l0,.2a3.21,3.21,0,0,0,.9-.33l5.07-2.93,0-.19Z" style="fill:#e0e0e0"></path><path d="M240.49,339.69a3.21,3.21,0,0,1-.9.33l0,.19a3.2,3.2,0,0,0,.9-.32l5.07-2.93,0-.2Z" style="fill:#e0e0e0"></path><polygon points="243.44 328.52 244.57 327.81 244.67 327.85 243.44 328.52" style="fill:#e6e6e6"></polygon><polygon points="244.22 327.66 242.28 328.82 244.29 327.69 244.22 327.66" style="fill:#e6e6e6"></polygon></g><polygon points="211.04 322.54 267 290.23 267 291.74 211.04 324.05 211.04 322.54" style="fill:#F59E0B"></polygon><polygon points="211.04 321.84 266.37 289.9 267 290.23 211.04 322.54 211.04 321.84" style="fill:#F59E0B"></polygon><polygon points="211.04 321.84 266.37 289.9 267 290.23 211.04 322.54 211.04 321.84" style="opacity:0.2"></polygon><polygon points="248.53 340.25 248.53 290.41 247.22 291.17 247.22 341 248.53 340.25" style="fill:#F59E0B"></polygon><polygon points="246.61 301.3 247.22 301.65 247.22 291.18 246.61 291.54 246.61 301.3" style="fill:#F59E0B"></polygon><polygon points="246.61 301.3 247.22 301.65 247.22 291.18 246.61 291.54 246.61 301.3" style="opacity:0.30000000000000004"></polygon><polygon points="246.61 340.64 247.22 341 247.22 303.15 246.61 303.51 246.61 340.64" style="fill:#F59E0B"></polygon><polygon points="246.61 340.64 247.22 341 247.22 303.15 246.61 303.51 246.61 340.64" style="opacity:0.30000000000000004"></polygon><polygon points="230.11 350.89 230.11 301.05 228.8 301.81 228.8 351.64 230.11 350.89" style="fill:#F59E0B"></polygon><polygon points="228.19 311.95 228.8 312.3 228.8 301.82 228.19 302.18 228.19 311.95" style="fill:#F59E0B"></polygon><polygon points="228.19 311.95 228.8 312.3 228.8 301.82 228.19 302.18 228.19 311.95" style="opacity:0.30000000000000004"></polygon><polygon points="228.19 351.29 228.8 351.64 228.8 313.8 228.19 314.15 228.19 351.29" style="fill:#F59E0B"></polygon><polygon points="228.19 351.29 228.8 351.64 228.8 313.8 228.19 314.15 228.19 351.29" style="opacity:0.30000000000000004"></polygon></g><path d="M211.16,391.93a.57.57,0,0,1-.25-.06.52.52,0,0,1-.25-.44,2.41,2.41,0,0,0-.86-2.17,1.64,1.64,0,0,0-1.61.17.5.5,0,0,1-.5,0,.52.52,0,0,1-.25-.43V375.93a.49.49,0,0,1,.25-.43,7.19,7.19,0,0,0,3-5.73.49.49,0,0,1,.25-.43l54.49-31.46a.5.5,0,0,1,.5,0,.5.5,0,0,1,.25.43,2.42,2.42,0,0,0,.86,2.18,1.64,1.64,0,0,0,1.61-.17.5.5,0,0,1,.5,0,.5.5,0,0,1,.25.43v13.07a.5.5,0,0,1-.25.43,7.29,7.29,0,0,0-3,5.73.5.5,0,0,1-.25.43l-54.49,31.46A.51.51,0,0,1,211.16,391.93Zm-1.94-3.82a2.12,2.12,0,0,1,1.08.28,2.94,2.94,0,0,1,1.3,2.21l53.55-30.91a8.33,8.33,0,0,1,3.22-6.15v-12a2.26,2.26,0,0,1-1.86-.16,2.92,2.92,0,0,1-1.3-2.21l-53.55,30.92a8.36,8.36,0,0,1-3.22,6.15v12A2.74,2.74,0,0,1,209.22,388.11ZM265.65,360h0Z" style="fill:#F59E0B"></path></g><g id="freepik--window--inject-70"><g id="freepik--window--inject-70"><g id="freepik--door--inject-70"><polygon points="396.98 254.55 341.64 286.5 341.64 236.66 396.98 204.72 396.98 254.55" style="fill:#fff;opacity:0.9500000000000001"></polygon><polygon points="396.98 204.72 396.98 207.59 341.64 239.53 341.64 236.66 396.98 204.72" style="opacity:0.1"></polygon><polygon points="396.98 256.7 397.6 257.06 397.6 204.35 396.98 204.72 396.98 256.7" style="fill:#F59E0B"></polygon><polygon points="396.98 256.7 397.6 257.06 397.6 204.35 396.98 204.72 396.98 256.7" style="opacity:0.2"></polygon><polygon points="400.09 200.05 339.16 235.23 338.54 234.87 399.47 199.69 400.09 200.05" style="fill:#F59E0B"></polygon><polygon points="400.09 200.05 339.16 235.23 338.54 234.87 399.47 199.69 400.09 200.05" style="fill:#fff;opacity:0.30000000000000004"></polygon><polygon points="397.6 254.19 341.64 286.5 341.64 285.78 396.98 253.82 397.6 254.19" style="fill:#F59E0B"></polygon><polygon points="397.6 254.19 341.64 286.5 341.64 285.78 396.98 253.82 397.6 254.19" style="fill:#fff;opacity:0.5"></polygon><polygon points="339.16 290.81 339.16 235.23 338.54 234.87 338.54 290.45 339.16 290.81" style="fill:#F59E0B"></polygon><polyline points="338.54 234.87 338.54 290.45 339.16 290.81 339.16 235.23" style="opacity:0.2"></polyline><path d="M339.16,235.23V290.8l2.48-1.43,56-32.31h0l2.49-1.43V200.05Zm2.48,51.27V236.66l56-32.31v49.84Z" style="fill:#F59E0B"></path></g><polygon points="387.9 209.96 387.9 248.59 341.64 275.29 341.64 236.66 387.9 209.96" style="fill:#F59E0B"></polygon><polygon points="387.9 209.96 387.9 248.59 341.64 275.29 341.64 236.66 387.9 209.96" style="opacity:0.35000000000000003"></polygon><polygon points="396.98 204.72 396.98 253.82 387.9 248.59 387.9 209.96 396.98 204.72" style="fill:#F59E0B"></polygon><polygon points="396.98 204.72 396.98 253.82 387.9 248.59 387.9 209.96 396.98 204.72" style="fill:#fff;opacity:0.6000000000000001"></polygon><polygon points="396.98 253.82 341.64 285.78 341.64 275.29 387.9 248.59 396.98 253.82" style="fill:#F59E0B"></polygon><polygon points="396.98 253.82 341.64 285.78 341.64 275.29 387.9 248.59 396.98 253.82" style="fill:#fff;opacity:0.8"></polygon><polygon points="358.8 268.92 375.05 259.54 379.11 261.89 362.87 271.27 358.8 268.92" style="opacity:0.30000000000000004"></polygon><polygon points="376.5 255.4 387.06 249.31 395.03 253.9 384.48 259.99 376.5 255.4" style="opacity:0.30000000000000004"></polygon><polygon points="341.64 275.7 351.44 270.04 359.4 274.63 348.85 280.73 341.64 276.57 341.64 275.7" style="opacity:0.30000000000000004"></polygon><g id="freepik--book--inject-70"><path d="M348.34,279.52l.24-.13s-.14-.05-.2,0S348.34,279.52,348.34,279.52Z"></path><path d="M348.18,279.37a.29.29,0,0,1,.42,0c.23.21.24.42.34.42a10.52,10.52,0,0,0,.09-1.68l-.9.84Z"></path><path d="M357.65,273.27h0l-.15-.08-6.23-3.61-9.1,5.89c-.15.09-.17.21-.06.28l.22.12,5.83,3.37,0,0Z" style="fill:#263238"></path><path d="M349,277.31l-.45-.09V279c.27.11.44.22.47.45Z" style="fill:#F59E0B"></path><path d="M348.31,279.05l-5.78-3.33a.41.41,0,0,1-.18-.32v-1.78l5.83,3.4a.53.53,0,0,0,.28.33c.2.08.05.16.05.16V279C348.33,279,348.31,279.05,348.31,279.05Z" style="fill:#ebebeb"></path><path d="M348.84,277.25c-.06,0-.11,0-.11,0v.05c0,.07-.09.06-.21,0s-.22-.17-.22-.23V277s-.08-.1-.18-.16l9.4-5.39.15.09a.15.15,0,0,1,0,.08v.05c0,.06.09.17.21.24s.21.07.21,0v-.06s.05,0,.11,0Z" style="fill:#263238"></path><path d="M357.65,271.55h0l-.15-.09-6.23-3.6-9.1,5.25c-.15.09-.17.21-.06.28l.22.12,5.83,3.52Z" style="fill:#37474f"></path><path d="M358.13,271.81l-9.39,5.42.33.26,9.36-5.41a.31.31,0,0,0-.12-.17Z" style="fill:#37474f"></path><path d="M358.4,274.51h0s0,0,0,0h0l0-.05s0,0,0-.06,0,0,0-.08v-1.71a1.36,1.36,0,0,0-.09-.47l-9.36,5.41,0,2.43,9.36-5.41Z" style="fill:#455a64"></path><path d="M350.14,276.86l1.13-.65a5.29,5.29,0,0,1,0,2.41l-1.13.65A5.16,5.16,0,0,0,350.14,276.86Z" style="fill:#F59E0B"></path><path d="M350.14,276.86l1.13-.65a5.29,5.29,0,0,1,0,2.41l-1.13.65A5.16,5.16,0,0,0,350.14,276.86Z" style="fill:#fff;opacity:0.4"></path><path d="M351.69,276l.42-.24a5.29,5.29,0,0,1,0,2.41l-.42.24A5.29,5.29,0,0,0,351.69,276Z" style="fill:#F59E0B"></path><path d="M351.69,276l.42-.24a5.29,5.29,0,0,1,0,2.41l-.42.24A5.29,5.29,0,0,0,351.69,276Z" style="fill:#fff;opacity:0.4"></path><path d="M356.5,273.2l.42-.24a5.39,5.39,0,0,1,0,2.4l-.42.25A5.44,5.44,0,0,0,356.5,273.2Z" style="fill:#F59E0B"></path><path d="M356.5,273.2l.42-.24a5.39,5.39,0,0,1,0,2.4l-.42.25A5.44,5.44,0,0,0,356.5,273.2Z" style="fill:#fff;opacity:0.4"></path><path d="M349.16,278H349a1,1,0,0,0-.1-.46.28.28,0,0,1-.18.06.72.72,0,0,1-.26-.08.83.83,0,0,1-.24-.22v0a.27.27,0,0,1-.06-.17l-5.54-3.2-.19-.11-.24-.14s-.07-.06-.07-.1v-.25a.14.14,0,0,0,.07.11h0l.63.37,5.35,3.09c.1.06.19.13.19.16v.06a.16.16,0,0,0,0,.1.45.45,0,0,0,.17.13c.12.07.21.08.21,0v-.05s0,0,.11,0l.1.06A.86.86,0,0,1,349.16,278Z" style="fill:#37474f"></path><path d="M349,278v1.67h0a.62.62,0,0,0-.32-.39.46.46,0,0,0-.25-.08.29.29,0,0,0-.19.07h0l0,0-5.35-3.09-.3-.18-.09-.05-.26-.15a.12.12,0,0,1-.06-.1v.24a.14.14,0,0,0,.05.1h0l.09,0,.06,0,.1.06.07,0,0,0,.08.05,4.25,2.45,1.36.78c.1.06.17.08.18.05h0v-.05c0-.07.1-.07.21,0s.17.14.17.21v.07a.15.15,0,0,0,0,.08h0l.07,0,.08.05a.09.09,0,0,0,.11,0h0l0,0h0v0a.08.08,0,0,0,0-.05.14.14,0,0,0,0-.06s0-.05,0-.07v-.08a.19.19,0,0,0,0-.08V278Z" style="fill:#37474f"></path></g><g id="freepik--book--inject-70"><path d="M377.81,255.36l.27-.14-.24-.06A.18.18,0,0,0,377.81,255.36Z" style="fill:#F59E0B"></path><path d="M377.81,255.36l.27-.14-.24-.06A.18.18,0,0,0,377.81,255.36Z" style="opacity:0.5"></path><path d="M384.91,258.93a.59.59,0,0,1-.55,0l-6.11-3.53,9.15-5.19.21-.13,6.11,3.45c.15.08.15.22,0,.31Z" style="fill:#F59E0B"></path><path d="M382.61,252.35l-2.13,1.23-1.38-.8-1.61.93v1.07c0,.14.16.34.22.31a1.32,1.32,0,0,1,.31.11,2.24,2.24,0,0,1,.44.32l4.9-2.74Z" style="fill:#F59E0B"></path><path d="M382.61,252.35l-2.13,1.23-1.38-.8-1.61.93v1.07c0,.14.16.34.22.31a1.32,1.32,0,0,1,.31.11,2.24,2.24,0,0,1,.44.32l4.9-2.74Z" style="opacity:0.15"></path><path d="M378.37,253.84V255h0a.57.57,0,0,0-.26-.08.27.27,0,0,0-.18,0v-1.37Z" style="fill:#37474f"></path><path d="M378.67,255.4a.37.37,0,0,0-.07-.2.3.3,0,0,0-.08-.08l0,0,0,0,0,0-.07,0v-1.16l.3.18h0Z" style="fill:#e0e0e0"></path><path d="M377.49,254.78c0,.14.16.34.22.31h0l.21-.14v-.89l-.21-.36-.12,0-.1.06Z" style="opacity:0.4"></path><path d="M384.63,257.45v1.33a.53.53,0,0,1-.18,0l-.67-.39-5.11-3V254Z" style="fill:#ebebeb"></path><path d="M393.57,252.47v1a.37.37,0,0,1-.18.31l-7.91,4.57-.67.39a.44.44,0,0,1-.18,0V257.6Z" style="fill:#f5f5f5"></path><path d="M387.4,248.48l-9.15,5.29v.12c0,.07-.1.09-.21,0a.33.33,0,0,1-.22-.27v-.11l9.32-5.38,0,0a.14.14,0,0,1,0,.06v.06C387.19,248.3,387.28,248.41,387.4,248.48Z" style="fill:#F59E0B"></path><path d="M387.4,248.48l-9.15,5.29v.12c0,.07-.1.09-.21,0a.33.33,0,0,1-.22-.27v-.11l9.32-5.38,0,0a.14.14,0,0,1,0,.06v.06C387.19,248.3,387.28,248.41,387.4,248.48Z" style="opacity:0.1"></path><path d="M384.36,257.29l-6-3.45c-.07,0-.14-.07-.17-.05l0,0,9.15-5.29.11-.06a.37.37,0,0,1,.28,0l5.93,3.43c.15.09.15.23,0,.31l-8.81,5.09A.59.59,0,0,1,384.36,257.29Z" style="fill:#F59E0B"></path><path d="M387.17,248.12l0,0-9.32,5.38,0,0,0,0-.07,0-.08,0s-.07,0-.11,0h0l0,0,0,.06s0,0,0,.06,0,0,0,.07,0,0,0,0v-.14a.54.54,0,0,1,.27-.42l8.82-5.1a.55.55,0,0,1,.48,0l.11.07h0l.05,0h0Z" style="fill:#F59E0B"></path><path d="M384.36,258.93l-.37-.21-5.53-3.2a.29.29,0,0,0-.08-.19.72.72,0,0,0-.24-.22.61.61,0,0,0-.26-.08.24.24,0,0,0-.17.06.94.94,0,0,1-.1-.46h-.21a.86.86,0,0,0,.21.65l.11.06c.06,0,.1,0,.1,0v-.05c0-.07.1-.06.22,0s.21.18.21.24v.06s.08.1.18.16l5.35,3.09.58.33h0a.6.6,0,0,0,.27.06V259A.5.5,0,0,1,384.36,258.93Z" style="fill:#F59E0B"></path><path d="M384.36,258.93l-.37-.21-5.53-3.2a.29.29,0,0,0-.08-.19.72.72,0,0,0-.24-.22.61.61,0,0,0-.26-.08.24.24,0,0,0-.17.06.94.94,0,0,1-.1-.46h-.21a.86.86,0,0,0,.21.65l.11.06c.06,0,.1,0,.1,0v-.05c0-.07.1-.06.22,0s.21.18.21.24v.06s.08.1.18.16l5.35,3.09.58.33h0a.6.6,0,0,0,.27.06V259A.5.5,0,0,1,384.36,258.93Z" style="opacity:0.30000000000000004"></path><path d="M384.36,257.3h0l-.37-.21-4.25-2.45-1.36-.79c-.09-.05-.17-.07-.18,0h0v.06c0,.07-.09.07-.21,0a.27.27,0,0,1-.17-.21v-.07s0-.07,0-.08l0,0-.07,0-.08,0s-.07,0-.11,0h0l0,0h0l0,.06s0,0,0,.06,0,0,0,.07,0,0,0,0v.95h.21v-.95h0a.62.62,0,0,0,.32.39.5.5,0,0,0,.26.08.27.27,0,0,0,.18-.07h0l0,0,5.35,3.09.58.34h0a.55.55,0,0,0,.26.06v-.24A.57.57,0,0,1,384.36,257.3Z" style="fill:#F59E0B"></path><path d="M384.36,257.3h0l-.37-.21-4.25-2.45-1.36-.79c-.09-.05-.17-.07-.18,0h0v.06c0,.07-.09.07-.21,0a.27.27,0,0,1-.17-.21v-.07s0-.07,0-.08l0,0-.07,0-.08,0s-.07,0-.11,0h0l0,0h0l0,.06s0,0,0,.06,0,0,0,.07,0,0,0,0v.95h.21v-.95h0a.62.62,0,0,0,.32.39.5.5,0,0,0,.26.08.27.27,0,0,0,.18-.07h0l0,0,5.35,3.09.58.34h0a.55.55,0,0,0,.26.06v-.24A.57.57,0,0,1,384.36,257.3Z" style="opacity:0.30000000000000004"></path><path d="M393.84,252v.25a.18.18,0,0,1-.11.15h0l-8.24,4.75-.57.34h0a.57.57,0,0,1-.27.06v-.24a.53.53,0,0,0,.28-.07l.36-.21h0l8.45-4.88A.19.19,0,0,0,393.84,252Z" style="fill:#F59E0B"></path><path d="M393.84,252v.25a.18.18,0,0,1-.11.15h0l-8.24,4.75-.57.34h0a.57.57,0,0,1-.27.06v-.24a.53.53,0,0,0,.28-.07l.36-.21h0l8.45-4.88A.19.19,0,0,0,393.84,252Z" style="opacity:0.2"></path><path d="M393.84,253.68v.25a.19.19,0,0,1-.11.15h0l-8.24,4.76-.57.33h0a.57.57,0,0,1-.27.06V259a.53.53,0,0,0,.28-.07l.36-.21h0l8.45-4.88C393.8,253.79,393.84,253.74,393.84,253.68Z" style="fill:#F59E0B"></path><path d="M393.84,253.68v.25a.19.19,0,0,1-.11.15h0l-8.24,4.76-.57.33h0a.57.57,0,0,1-.27.06V259a.53.53,0,0,0,.28-.07l.36-.21h0l8.45-4.88C393.8,253.79,393.84,253.74,393.84,253.68Z" style="opacity:0.2"></path></g><g id="freepik--book--inject-70"><polygon points="342.55 272.89 348.1 276.06 357.27 270.79 351.72 267.63 342.55 272.89" style="fill:#F59E0B"></polygon><path d="M348.16,275.81l-5.35-3.07a2.21,2.21,0,0,0,0-1.39l5.32,3A5.36,5.36,0,0,1,348.16,275.81Z" style="fill:#f5f5f5"></path><path d="M347.83,274a1.13,1.13,0,0,1,.51.89v1c0,.33-.23.46-.51.3l-5.28-3v-.26l5.2,3c.17.1.31,0,.31-.18v-1a.69.69,0,0,0-.31-.53l-5.2-3v-.29Z" style="fill:#F59E0B"></path><path d="M347.83,274a1.13,1.13,0,0,1,.51.89v1c0,.33-.23.46-.51.3l-5.28-3v-.26l5.2,3c.17.1.31,0,.31-.18v-1a.69.69,0,0,0-.31-.53l-5.2-3v-.29Z" style="fill:#fff;opacity:0.6000000000000001"></path><path d="M342.55,270.93l9.17-5.26,5.27,3a1.11,1.11,0,0,1,.52.88v1a.36.36,0,0,1-.15.33l-9.17,5.26a.36.36,0,0,0,.15-.33v-1a1.13,1.13,0,0,0-.51-.89Z" style="fill:#F59E0B"></path><path d="M342.55,270.93l9.17-5.26,5.27,3a1.11,1.11,0,0,1,.52.88v1a.36.36,0,0,1-.15.33l-9.17,5.26a.36.36,0,0,0,.15-.33v-1a1.13,1.13,0,0,0-.51-.89Z" style="fill:#fff;opacity:0.4"></path><path d="M348.19,274.34a1.07,1.07,0,0,1,.15.51v1a.36.36,0,0,1-.15.33l9.17-5.26a.36.36,0,0,0,.15-.33v-1a1.07,1.07,0,0,0-.15-.5Z" style="fill:#F59E0B"></path><path d="M348.19,274.34a1.07,1.07,0,0,1,.15.51v1a.36.36,0,0,1-.15.33l9.17-5.26a.36.36,0,0,0,.15-.33v-1a1.07,1.07,0,0,0-.15-.5Z" style="fill:#fff;opacity:0.7000000000000001"></path></g><g id="freepik--book--inject-70"><polygon points="342.63 270.53 347.77 273.47 356.27 268.59 351.13 265.65 342.63 270.53" style="fill:#F59E0B"></polygon><polygon points="342.63 270.53 347.77 273.47 356.27 268.59 351.13 265.65 342.63 270.53" style="opacity:0.35000000000000003"></polygon><path d="M347.83,273.24l-5-2.85a2,2,0,0,0,0-1.28l4.93,2.82A5.13,5.13,0,0,1,347.83,273.24Z" style="fill:#fff"></path><path d="M347.52,271.52a1,1,0,0,1,.47.82v1c0,.31-.21.43-.47.28l-4.89-2.81v-.24l4.82,2.75c.16.1.29,0,.29-.16v-.89a.64.64,0,0,0-.28-.49L342.63,269v-.27Z" style="fill:#F59E0B"></path><path d="M347.52,271.52a1,1,0,0,1,.47.82v1c0,.31-.21.43-.47.28l-4.89-2.81v-.24l4.82,2.75c.16.1.29,0,.29-.16v-.89a.64.64,0,0,0-.28-.49L342.63,269v-.27Z" style="opacity:0.2"></path><path d="M342.63,268.72l8.5-4.88,4.89,2.81a1,1,0,0,1,.47.82v1a.31.31,0,0,1-.14.3l-8.5,4.88a.33.33,0,0,0,.14-.31v-1a1,1,0,0,0-.47-.82Z" style="fill:#F59E0B"></path><path d="M347.86,271.88a1,1,0,0,1,.13.46v1a.33.33,0,0,1-.14.31l8.5-4.88a.31.31,0,0,0,.14-.3v-1a.94.94,0,0,0-.14-.47Z" style="fill:#F59E0B"></path><path d="M347.86,271.88a1,1,0,0,1,.13.46v1a.33.33,0,0,1-.14.31l8.5-4.88a.31.31,0,0,0,.14-.3v-1a.94.94,0,0,0-.14-.47Z" style="opacity:0.1"></path><path d="M349,271.22l.33-.19a2.72,2.72,0,0,1,0,1.74L349,273A2.86,2.86,0,0,0,349,271.22Z" style="fill:#455a64"></path><path d="M354.73,267.93l.34-.2a2.72,2.72,0,0,1,0,1.74l-.34.19A2.69,2.69,0,0,0,354.73,267.93Z" style="fill:#455a64"></path></g><g id="freepik--book--inject-70"><path d="M384.08,256.09l.23-.13a.35.35,0,0,0-.2,0C384.05,256,384.08,256.09,384.08,256.09Z"></path><path d="M383.91,255.94a.29.29,0,0,1,.42,0c.23.22.24.42.34.42a10.52,10.52,0,0,0,.09-1.68l-.9.84Z" style="fill:#F59E0B"></path><path d="M383.91,255.94a.29.29,0,0,1,.42,0c.23.22.24.42.34.42a10.52,10.52,0,0,0,.09-1.68l-.9.84Z" style="opacity:0.30000000000000004"></path><path d="M393.39,249.84h0l-.14-.08-6.24-3.6L377.93,252c-.15.09-.18.21-.06.28l.21.12,5.83,3.37,0,0Z" style="fill:#F59E0B"></path><path d="M393.39,249.84h0l-.14-.08-6.24-3.6L377.93,252c-.15.09-.18.21-.06.28l.21.12,5.83,3.37,0,0Z" style="opacity:0.2"></path><path d="M384.69,253.88l-.45-.09v1.81c.27.12.44.22.47.45Z" style="fill:#455a64"></path><path d="M384,255.62l-5.78-3.33a.41.41,0,0,1-.18-.32v-1.78l5.83,3.4a.53.53,0,0,0,.28.33c.21.08.05.16.05.16v1.52C384.06,255.58,384,255.62,384,255.62Z" style="fill:#ebebeb"></path><path d="M384.57,253.82c-.06,0-.11,0-.11,0v.05c0,.07-.09.06-.21,0s-.21-.18-.21-.24v-.06s-.08-.1-.18-.16l9.4-5.39.14.09a.1.1,0,0,1,0,.08v.05c0,.07.09.17.21.24s.21.07.21,0v-.06s.05,0,.11,0Z" style="fill:#F59E0B"></path><path d="M384.57,253.82c-.06,0-.11,0-.11,0v.05c0,.07-.09.06-.21,0s-.21-.18-.21-.24v-.06s-.08-.1-.18-.16l9.4-5.39.14.09a.1.1,0,0,1,0,.08v.05c0,.07.09.17.21.24s.21.07.21,0v-.06s.05,0,.11,0Z" style="fill:#fff;opacity:0.25"></path><path d="M393.39,248.12h0l-.14-.08L387,244.42l-9.09,5.25c-.15.09-.18.22-.06.28l.21.12,5.83,3.52Z" style="fill:#F59E0B"></path><path d="M393.39,248.12h0l-.14-.08L387,244.42l-9.09,5.25c-.15.09-.18.22-.06.28l.21.12,5.83,3.52Z" style="fill:#fff;opacity:0.4"></path><path d="M393.87,248.38l-9.4,5.42.33.26,9.37-5.41a.43.43,0,0,0-.13-.17Z" style="fill:#F59E0B"></path><path d="M393.87,248.38l-9.4,5.42.33.26,9.37-5.41a.43.43,0,0,0-.13-.17Z" style="fill:#fff;opacity:0.4"></path><path d="M394.13,251.08h0v0h0l0-.05s0,0,0-.06,0,0,0-.07a.09.09,0,0,1,0-.05v-1.67a1.36,1.36,0,0,0-.08-.47l-9.37,5.41,0,2.43,9.37-5.41Z" style="fill:#F59E0B"></path><g style="opacity:0.7000000000000001"><path d="M394.13,251.08h0v0h0l0-.05s0,0,0-.06,0,0,0-.07a.09.09,0,0,1,0-.05v-1.67a1.36,1.36,0,0,0-.08-.47l-9.37,5.41,0,2.43,9.37-5.41Z" style="fill:#fff"></path></g><path d="M385.58,253.61l1.13-.65a5.44,5.44,0,0,1,0,2.41l-1.13.65A5.29,5.29,0,0,0,385.58,253.61Z" style="fill:#fafafa"></path><path d="M391.87,250l1.12-.65a5.16,5.16,0,0,1,0,2.41l-1.12.65A5.44,5.44,0,0,0,391.87,250Z" style="fill:#fafafa"></path><path d="M384.89,254.53h-.21a1.07,1.07,0,0,0-.1-.46.27.27,0,0,1-.17.06.5.5,0,0,1-.26-.08.86.86,0,0,1-.25-.22h0a.32.32,0,0,1-.06-.18l-5.54-3.2-.18-.11-.24-.14a.11.11,0,0,1-.08-.1v-.25a.12.12,0,0,0,.08.11h0l.64.37,5.35,3.09c.1.06.18.13.18.16v.06a.19.19,0,0,0,0,.1.45.45,0,0,0,.16.14c.12.06.21.07.21,0v-.05s.05,0,.11,0l.11.06A.9.9,0,0,1,384.89,254.53Z" style="fill:#F59E0B"></path><path d="M384.89,254.53h-.21a1.07,1.07,0,0,0-.1-.46.27.27,0,0,1-.17.06.5.5,0,0,1-.26-.08.86.86,0,0,1-.25-.22h0a.32.32,0,0,1-.06-.18l-5.54-3.2-.18-.11-.24-.14a.11.11,0,0,1-.08-.1v-.25a.12.12,0,0,0,.08.11h0l.64.37,5.35,3.09c.1.06.18.13.18.16v.06a.19.19,0,0,0,0,.1.45.45,0,0,0,.16.14c.12.06.21.07.21,0v-.05s.05,0,.11,0l.11.06A.9.9,0,0,1,384.89,254.53Z" style="fill:#fff;opacity:0.6000000000000001"></path><path d="M384.68,254.53v1.67h0a.63.63,0,0,0-.31-.39.53.53,0,0,0-.26-.08.32.32,0,0,0-.19.07h0l0,0-5.35-3.09-.31-.18-.09-.05-.26-.15a.15.15,0,0,1-.06-.1v.24a.12.12,0,0,0,.06.1h0l.09.06.06,0,.11.06.06,0,.05,0,.07.05,4.26,2.45,1.35.79c.1,0,.18.07.18,0h0V256c0-.07.1-.07.22,0a.27.27,0,0,1,.16.21v.07a.1.1,0,0,0,0,.08l0,0,.06,0,.09,0a.07.07,0,0,0,.1,0h0l0,0h0l0-.06s0,0,0-.06a.64.64,0,0,0,0-.07v-1.71Z" style="fill:#F59E0B"></path><path d="M384.68,254.53v1.67h0a.63.63,0,0,0-.31-.39.53.53,0,0,0-.26-.08.32.32,0,0,0-.19.07h0l0,0-5.35-3.09-.31-.18-.09-.05-.26-.15a.15.15,0,0,1-.06-.1v.24a.12.12,0,0,0,.06.1h0l.09.06.06,0,.11.06.06,0,.05,0,.07.05,4.26,2.45,1.35.79c.1,0,.18.07.18,0h0V256c0-.07.1-.07.22,0a.27.27,0,0,1,.16.21v.07a.1.1,0,0,0,0,.08l0,0,.06,0,.09,0a.07.07,0,0,0,.1,0h0l0,0h0l0-.06s0,0,0-.06a.64.64,0,0,0,0-.07v-1.71Z" style="fill:#fff;opacity:0.6000000000000001"></path></g><g id="freepik--book--inject-70"><polygon points="378.8 249.74 383.95 252.67 392.45 247.8 387.3 244.86 378.8 249.74"></polygon><path d="M384,252.45l-5-2.85a2,2,0,0,0,0-1.28l4.94,2.81A5,5,0,0,1,384,252.45Z" style="fill:#fff"></path><path d="M383.69,250.73a1,1,0,0,1,.48.82v1c0,.3-.21.43-.48.28L378.8,250v-.24l4.83,2.75c.15.09.28,0,.28-.16v-.89a.62.62,0,0,0-.29-.49l-4.82-2.76v-.27Z" style="fill:#263238"></path><path d="M378.8,247.92l8.5-4.87,4.89,2.8a1,1,0,0,1,.48.82v1a.33.33,0,0,1-.14.31l-8.5,4.88a.33.33,0,0,0,.14-.31v-1a1,1,0,0,0-.48-.82Z" style="fill:#455a64"></path><path d="M384,251.09a.88.88,0,0,1,.14.46v1a.33.33,0,0,1-.14.31l8.5-4.88a.33.33,0,0,0,.14-.31v-1a.91.91,0,0,0-.14-.46Z" style="fill:#37474f"></path><path d="M385.16,250.43l.34-.19a2.76,2.76,0,0,1,0,1.73l-.34.2A2.72,2.72,0,0,0,385.16,250.43Z" style="fill:#F59E0B"></path><path d="M390.91,247.13l.34-.19a2.87,2.87,0,0,1,0,1.74l-.34.19A2.79,2.79,0,0,0,390.91,247.13Z" style="fill:#F59E0B"></path></g><g id="freepik--book--inject-70"><polygon points="360.34 259.99 374.58 251.77 375.97 261.47 361.73 269.69 360.34 259.99" style="fill:#F59E0B"></polygon><polygon points="360.34 259.99 374.58 251.77 375.97 261.47 361.73 269.69 360.34 259.99" style="opacity:0.15"></polygon><path d="M367.49,256.08l.25.11a3.43,3.43,0,0,0,2.15-.35l5.65-3.27-1.14-.48Z" style="fill:#fafafa"></path><path d="M375.54,252.57l-5.65,3.27a3.43,3.43,0,0,1-2.15.35l-.25-.11,1.33,9.28h0l.25.11a3.33,3.33,0,0,0,2.14-.35l5.66-3.27h0Z" style="fill:#fafafa"></path><path d="M375.54,252.57l-5.65,3.27a3.43,3.43,0,0,1-2.15.35l-.25-.11,1.33,9.28h0l.25.11a3.33,3.33,0,0,0,2.14-.35l5.66-3.27Z" style="fill:#f5f5f5"></path><path d="M369.1,256.13a2.81,2.81,0,0,1-1.36.06l-.25-.11,1.33,9.28h0l.25.11a2.81,2.81,0,0,0,1.36-.06Z" style="fill:#e6e6e6"></path><polygon points="360.11 259.89 360.34 259.99 361.73 269.69 361.5 269.59 360.11 259.89" style="fill:#F59E0B"></polygon><polygon points="360.11 259.89 360.34 259.99 361.73 269.69 361.5 269.59 360.11 259.89" style="opacity:0.30000000000000004"></polygon><polygon points="360.11 259.89 374.35 251.66 374.58 251.77 360.34 259.99 360.11 259.89" style="fill:#F59E0B"></polygon><path d="M367.73,256.18c.31.14.33.72-.37,1.12l-5.63,3.28-1.17-.5,6.93-4Z" style="fill:#fafafa"></path><polygon points="360.56 260.08 361.73 260.58 363.06 269.86 361.89 269.36 360.56 260.08" style="fill:#ebebeb"></polygon><path d="M367.36,257.3l-.25.15-5.38,3.13,1.17,8.2.16,1.08,5.63-3.28c.51-.29.61-.54.58-.75h0l-1.35-9.41C368,256.76,367.77,257.05,367.36,257.3Z" style="fill:#f5f5f5"></path><polygon points="362.44 261.28 367.26 258.5 367.51 258.35 367.48 258.15 367.23 258.3 362.41 261.08 362.44 261.28" style="fill:#e0e0e0"></polygon><polygon points="362.51 261.75 367.32 258.97 367.58 258.82 367.55 258.63 367.3 258.77 362.48 261.55 362.51 261.75" style="fill:#e0e0e0"></polygon><polygon points="362.58 262.23 367.39 259.44 367.64 259.3 367.62 259.1 367.36 259.25 362.55 262.03 362.58 262.23" style="fill:#e0e0e0"></polygon><polygon points="362.65 262.7 367.46 259.92 367.71 259.77 367.68 259.57 367.43 259.72 362.62 262.5 362.65 262.7" style="fill:#e0e0e0"></polygon><polygon points="362.71 263.18 367.53 260.39 367.78 260.25 367.75 260.05 367.5 260.2 362.69 262.98 362.71 263.18" style="fill:#e0e0e0"></polygon><polygon points="362.78 263.65 367.6 260.87 367.85 260.72 367.82 260.52 367.57 260.67 362.75 263.45 362.78 263.65" style="fill:#e0e0e0"></polygon><polygon points="362.85 264.12 367.66 261.34 367.92 261.19 367.89 261 367.64 261.14 362.82 263.93 362.85 264.12" style="fill:#e0e0e0"></polygon><polygon points="362.92 264.6 367.73 261.82 367.98 261.67 367.96 261.47 367.7 261.62 362.89 264.4 362.92 264.6" style="fill:#e0e0e0"></polygon><polygon points="362.99 265.07 367.8 262.29 368.05 262.14 368.02 261.95 367.77 262.09 362.96 264.87 362.99 265.07" style="fill:#e0e0e0"></polygon><polygon points="363.05 265.55 367.87 262.76 368.12 262.62 368.09 262.42 367.84 262.57 363.03 265.35 363.05 265.55" style="fill:#e0e0e0"></polygon><polygon points="363.12 266.02 367.94 263.24 368.19 263.09 368.16 262.89 367.91 263.04 363.09 265.82 363.12 266.02" style="fill:#e0e0e0"></polygon><polygon points="363.19 266.5 368 263.71 368.26 263.57 368.23 263.37 367.98 263.52 363.16 266.3 363.19 266.5" style="fill:#e0e0e0"></polygon><polygon points="363.26 266.97 368.07 264.19 368.32 264.04 368.3 263.84 368.04 263.99 363.23 266.77 363.26 266.97" style="fill:#e0e0e0"></polygon><polygon points="363.33 267.44 368.14 264.66 368.39 264.51 368.36 264.32 368.11 264.46 363.3 267.25 363.33 267.44" style="fill:#e0e0e0"></polygon><polygon points="363.39 267.92 368.21 265.14 368.46 264.99 368.43 264.79 368.18 264.94 363.37 267.72 363.39 267.92" style="fill:#e0e0e0"></polygon><polygon points="363.46 268.39 368.28 265.61 368.53 265.46 368.5 265.27 368.25 265.41 363.43 268.19 363.46 268.39" style="fill:#e0e0e0"></polygon><polygon points="363.53 268.87 368.34 266.08 368.6 265.94 368.57 265.74 368.31 265.89 363.5 268.67 363.53 268.87" style="fill:#e0e0e0"></polygon><polygon points="361.47 260.48 362.27 259.95 361.39 260.43 361.52 261.35 361.47 260.48" style="fill:#e6e6e6"></polygon><polygon points="360.89 260.22 362.47 259.31 360.95 260.25 361.16 262.12 360.89 260.22" style="fill:#e6e6e6"></polygon><polygon points="362.8 269.75 362.56 268.32 362.68 269.7 362.8 269.75" style="fill:#e6e6e6"></polygon><polygon points="362.34 269.55 361.98 267.42 362.23 269.51 362.34 269.55" style="fill:#e6e6e6"></polygon><path d="M370,256.71a3.2,3.2,0,0,1-.9.32l0,.19a3,3,0,0,0,.9-.32L375.1,254l0-.19Z" style="fill:#e0e0e0"></path><path d="M370,256.71a3.2,3.2,0,0,1-.9.32l0,.19a3,3,0,0,0,.9-.32L375.1,254l0-.19Z" style="fill:#e0e0e0"></path><path d="M370.08,257.18a3,3,0,0,1-.9.32l0,.2a3.14,3.14,0,0,0,.9-.33l5.06-2.93,0-.19Z" style="fill:#e0e0e0"></path><path d="M370.15,257.66a3.44,3.44,0,0,1-.9.32l0,.19a2.92,2.92,0,0,0,.9-.32l5.07-2.93,0-.19Z" style="fill:#e0e0e0"></path><path d="M370.21,258.13a2.92,2.92,0,0,1-.9.32l0,.2a3.21,3.21,0,0,0,.9-.33l5.06-2.93,0-.19Z" style="fill:#e0e0e0"></path><path d="M370.28,258.6a2.93,2.93,0,0,1-.9.33l0,.19a3.2,3.2,0,0,0,.9-.32l5.06-2.93,0-.2Z" style="fill:#e0e0e0"></path><path d="M370.35,259.08a2.92,2.92,0,0,1-.9.32l0,.2a3.33,3.33,0,0,0,.9-.33l5.06-2.93,0-.19Z" style="fill:#e0e0e0"></path><path d="M370.42,259.55a3.33,3.33,0,0,1-.9.33l0,.19a3.2,3.2,0,0,0,.9-.32l5.07-2.93,0-.2Z" style="fill:#e0e0e0"></path><path d="M370.49,260a3.12,3.12,0,0,1-.9.32l0,.2a3.21,3.21,0,0,0,.9-.33l5.07-2.93,0-.19Z" style="fill:#e0e0e0"></path><path d="M370.55,260.5a3.21,3.21,0,0,1-.9.33l0,.19a3.2,3.2,0,0,0,.9-.32l5.06-2.93,0-.2Z" style="fill:#e0e0e0"></path><path d="M370.62,261a3.2,3.2,0,0,1-.9.32l0,.19a2.92,2.92,0,0,0,.9-.32l5.06-2.93,0-.19Z" style="fill:#e0e0e0"></path><path d="M370.69,261.45a3.21,3.21,0,0,1-.9.33l0,.19a3.32,3.32,0,0,0,.9-.32l5.06-2.93,0-.2Z" style="fill:#e0e0e0"></path><path d="M370.76,261.93a3.32,3.32,0,0,1-.9.32l0,.19a2.92,2.92,0,0,0,.9-.32l5.07-2.93,0-.19Z" style="fill:#e0e0e0"></path><path d="M370.83,262.4a3.4,3.4,0,0,1-.91.33l0,.19a2.93,2.93,0,0,0,.9-.33l5.07-2.93,0-.19Z" style="fill:#e0e0e0"></path><path d="M370.89,262.88a3.2,3.2,0,0,1-.9.32l0,.19a2.92,2.92,0,0,0,.9-.32l5.06-2.93,0-.19Z" style="fill:#e0e0e0"></path><path d="M371,263.35a2.92,2.92,0,0,1-.9.32l0,.2a3.21,3.21,0,0,0,.9-.33l5.06-2.93,0-.19Z" style="fill:#e0e0e0"></path><path d="M371,263.83a3.2,3.2,0,0,1-.9.32l0,.19a3,3,0,0,0,.9-.32l5.06-2.93,0-.19Z" style="fill:#e0e0e0"></path><path d="M371.1,264.3a3,3,0,0,1-.9.32l0,.2a3.21,3.21,0,0,0,.9-.33l5.07-2.93,0-.19Z" style="fill:#e0e0e0"></path><polygon points="374.04 253.13 375.17 252.41 375.27 252.46 374.04 253.13" style="fill:#e6e6e6"></polygon><polygon points="374.82 252.27 372.88 253.42 374.89 252.3 374.82 252.27" style="fill:#e6e6e6"></polygon></g><polygon points="341.64 247.15 397.6 214.84 397.6 216.35 341.64 248.66 341.64 247.15" style="fill:#F59E0B"></polygon><polygon points="341.64 246.45 396.98 214.5 397.6 214.84 341.64 247.15 341.64 246.45" style="fill:#F59E0B"></polygon><polygon points="341.64 246.45 396.98 214.5 397.6 214.84 341.64 247.15 341.64 246.45" style="opacity:0.2"></polygon><polygon points="379.13 264.85 379.13 215.02 377.82 215.77 377.82 265.6 379.13 264.85" style="fill:#F59E0B"></polygon><polygon points="377.21 225.91 377.82 226.26 377.82 215.79 377.21 216.14 377.21 225.91" style="fill:#F59E0B"></polygon><polygon points="377.21 225.91 377.82 226.26 377.82 215.79 377.21 216.14 377.21 225.91" style="opacity:0.30000000000000004"></polygon><polygon points="377.21 265.25 377.82 265.6 377.82 227.76 377.21 228.11 377.21 265.25" style="fill:#F59E0B"></polygon><polygon points="377.21 265.25 377.82 265.6 377.82 227.76 377.21 228.11 377.21 265.25" style="opacity:0.30000000000000004"></polygon><polygon points="360.71 275.5 360.71 225.66 359.41 226.41 359.4 276.25 360.71 275.5" style="fill:#F59E0B"></polygon><polygon points="358.8 236.55 359.4 236.9 359.4 226.43 358.8 226.78 358.8 236.55" style="fill:#F59E0B"></polygon><polygon points="358.8 236.55 359.4 236.9 359.4 226.43 358.8 226.78 358.8 236.55" style="opacity:0.30000000000000004"></polygon><polygon points="358.8 275.89 359.4 276.25 359.4 238.4 358.8 238.76 358.8 275.89" style="fill:#F59E0B"></polygon><polygon points="358.8 275.89 359.4 276.25 359.4 238.4 358.8 238.76 358.8 275.89" style="opacity:0.30000000000000004"></polygon></g><path d="M341.77,316.54a.43.43,0,0,1-.25-.07.48.48,0,0,1-.25-.43,2.41,2.41,0,0,0-.87-2.17,1.62,1.62,0,0,0-1.61.16.5.5,0,0,1-.75-.43V300.53a.52.52,0,0,1,.25-.43,7.18,7.18,0,0,0,3-5.73.5.5,0,0,1,.25-.43L396,262.49a.5.5,0,0,1,.5,0,.5.5,0,0,1,.25.43,2.4,2.4,0,0,0,.86,2.17,1.64,1.64,0,0,0,1.61-.17.5.5,0,0,1,.75.44v13.06a.5.5,0,0,1-.25.44,7.29,7.29,0,0,0-3,5.72.52.52,0,0,1-.25.44L342,316.47A.47.47,0,0,1,341.77,316.54Zm-1.95-3.82a2.12,2.12,0,0,1,1.08.28,3,3,0,0,1,1.31,2.21l53.55-30.92a8.28,8.28,0,0,1,3.21-6.14v-12a2.3,2.3,0,0,1-1.86-.16,3,3,0,0,1-1.3-2.21l-53.55,30.92a8.26,8.26,0,0,1-3.22,6.14v12A2.74,2.74,0,0,1,339.82,312.72Zm56.43-28.14h0Z" style="fill:#F59E0B"></path></g><g id="freepik--Awning--inject-70"><polygon points="272.79 270.56 272.79 265.47 283.07 276.49 272.79 270.56" style="fill:#e0e0e0"></polygon><path d="M331.54,251.06a4.85,4.85,0,0,1-2.19,3.8h0c-1.21.7-2.2.14-2.2-1.26v-2.56l4.41-2.54Z" style="fill:#ebebeb"></path><path d="M340.36,246a4.85,4.85,0,0,1-2.19,3.8h0c-1.21.7-2.19.13-2.19-1.26V246l4.41-2.55Z" style="fill:#ebebeb"></path><path d="M322.73,256.15a4.85,4.85,0,0,1-2.19,3.8h0c-1.21.7-2.19.13-2.19-1.26v-2.56l4.41-2.54Z" style="fill:#ebebeb"></path><path d="M313.92,261.24a4.86,4.86,0,0,1-2.2,3.8h0c-1.21.7-2.19.13-2.19-1.26v-2.56l4.41-2.55Z" style="fill:#ebebeb"></path><path d="M305.1,266.33a4.85,4.85,0,0,1-2.19,3.8h0c-1.21.7-2.19.13-2.19-1.27v-2.55l4.4-2.55Z" style="fill:#ebebeb"></path><path d="M296.29,271.42a4.82,4.82,0,0,1-2.19,3.79l0,0c-1.22.7-2.2.13-2.2-1.27V271.4l4.41-2.54Z" style="fill:#ebebeb"></path><path d="M287.48,276.51a4.86,4.86,0,0,1-2.2,3.79l0,0c-1.21.69-2.19.13-2.19-1.27v-2.56l4.41-2.54Z" style="fill:#ebebeb"></path><polygon points="283.07 276.49 340.35 243.43 330.06 232.41 272.79 265.47 283.07 276.49" style="fill:#fafafa"></polygon><polygon points="287.48 273.95 277.19 262.93 281.6 260.38 291.88 271.4 287.48 273.95" style="fill:#F59E0B"></polygon><polygon points="296.29 268.86 286 257.84 290.41 255.29 300.7 266.32 296.29 268.86" style="fill:#F59E0B"></polygon><polygon points="305.1 263.77 294.82 252.75 299.22 250.21 309.51 261.23 305.1 263.77" style="fill:#F59E0B"></polygon><polygon points="313.91 258.68 303.63 247.66 308.04 245.12 318.32 256.14 313.91 258.68" style="fill:#F59E0B"></polygon><polygon points="322.73 253.6 312.44 242.57 316.85 240.03 327.13 251.05 322.73 253.6" style="fill:#F59E0B"></polygon><polygon points="331.54 248.51 321.26 237.49 325.67 234.94 335.95 245.97 331.54 248.51" style="fill:#F59E0B"></polygon><path d="M327.14,253.61a4.86,4.86,0,0,1-2.2,3.8h0c-1.21.7-2.19.13-2.19-1.27V253.6l4.41-2.55Z" style="fill:#F59E0B"></path><path d="M318.32,258.7a4.85,4.85,0,0,1-2.19,3.79l0,0c-1.21.7-2.19.13-2.19-1.27v-2.56l4.4-2.54Z" style="fill:#F59E0B"></path><path d="M309.51,263.78a4.85,4.85,0,0,1-2.19,3.8h0c-1.21.7-2.19.14-2.19-1.26v-2.56l4.41-2.54Z" style="fill:#F59E0B"></path><path d="M300.7,268.87a4.86,4.86,0,0,1-2.2,3.8h0c-1.21.7-2.19.14-2.19-1.26v-2.56l4.41-2.54Z" style="fill:#F59E0B"></path><path d="M291.88,274a4.85,4.85,0,0,1-2.19,3.8h0c-1.21.7-2.19.13-2.19-1.26V274l4.4-2.55Z" style="fill:#F59E0B"></path><path d="M336,248.53a4.85,4.85,0,0,1-2.19,3.79l0,0c-1.21.69-2.19.13-2.19-1.27v-2.56L336,246Z" style="fill:#F59E0B"></path><g style="opacity:0.2"><path d="M327.14,253.61a4.86,4.86,0,0,1-2.2,3.8h0c-1.21.7-2.19.13-2.19-1.27V253.6l4.41-2.55Z"></path><path d="M336,248.53a4.85,4.85,0,0,1-2.19,3.79l0,0c-1.21.69-2.19.13-2.19-1.27v-2.56L336,246Z"></path><path d="M318.32,258.7a4.85,4.85,0,0,1-2.19,3.79l0,0c-1.21.7-2.19.13-2.19-1.27v-2.56l4.4-2.54Z"></path><path d="M309.51,263.78a4.85,4.85,0,0,1-2.19,3.8h0c-1.21.7-2.19.14-2.19-1.26v-2.56l4.41-2.54Z"></path><path d="M300.7,268.87a4.86,4.86,0,0,1-2.2,3.8h0c-1.21.7-2.19.14-2.19-1.26v-2.56l4.41-2.54Z"></path><path d="M291.88,274a4.85,4.85,0,0,1-2.19,3.8h0c-1.21.7-2.19.13-2.19-1.26V274l4.4-2.55Z"></path></g><g style="opacity:0.1"><polygon points="287.48 273.95 277.19 262.93 281.6 260.38 291.88 271.4 287.48 273.95"></polygon><polygon points="296.29 268.86 286 257.84 290.41 255.29 300.7 266.32 296.29 268.86"></polygon><polygon points="305.1 263.77 294.82 252.75 299.22 250.21 309.51 261.23 305.1 263.77"></polygon><polygon points="313.91 258.68 303.63 247.66 308.04 245.12 318.32 256.14 313.91 258.68"></polygon><polygon points="322.73 253.6 312.44 242.57 316.85 240.03 327.13 251.05 322.73 253.6"></polygon><polygon points="331.54 248.51 321.26 237.49 325.67 234.94 335.95 245.97 331.54 248.51"></polygon></g></g><g id="freepik--Lamp--inject-70"><path d="M328.76,266.7c0-1.53,2.28-3.81,2.28-3.81h1.82s2.28,2.28,2.28,3.81h0a1.58,1.58,0,0,1-.93,1.3,5,5,0,0,1-4.52,0,1.58,1.58,0,0,1-.93-1.3Z" style="fill:#F59E0B"></path><path d="M328.76,266.7c0-1.53,2.28-3.81,2.28-3.81h1.82s2.28,2.28,2.28,3.81h0a1.58,1.58,0,0,1-.93,1.3,5,5,0,0,1-4.52,0,1.58,1.58,0,0,1-.93-1.3Z" style="fill:#fff;opacity:0.30000000000000004"></path><path d="M332.73,262.8a1.72,1.72,0,0,0-1.56,0,.48.48,0,0,0,0,.9,1.72,1.72,0,0,0,1.56,0A.48.48,0,0,0,332.73,262.8Z" style="fill:#F59E0B"></path><path d="M332.73,262.8a1.72,1.72,0,0,0-1.56,0,.48.48,0,0,0,0,.9,1.72,1.72,0,0,0,1.56,0A.48.48,0,0,0,332.73,262.8Z" style="fill:#fff;opacity:0.2"></path><path d="M332.73,262.8a1.72,1.72,0,0,0-1.56,0,.48.48,0,0,0,0,.9,1.72,1.72,0,0,0,1.56,0A.48.48,0,0,0,332.73,262.8Z" style="opacity:0.2"></path><path d="M326.35,258.89a3.46,3.46,0,0,1,1.56-2.7,1.08,1.08,0,0,1,1.09-.11l.61.35a1.09,1.09,0,0,1,.46,1,3.43,3.43,0,0,1-1.56,2.7,1.08,1.08,0,0,1-1.09.11l-.61-.35A1.09,1.09,0,0,1,326.35,258.89Z" style="fill:#263238"></path><path d="M328.51,260.13c-.86.49-1.56.09-1.56-.9a3.43,3.43,0,0,1,1.56-2.69c.86-.5,1.55-.1,1.55.9A3.43,3.43,0,0,1,328.51,260.13Z" style="fill:#37474f"></path><path d="M328.66,258.31a.12.12,0,0,1,.15,0h0l2.59,1.49a1.65,1.65,0,0,1,.83,1.43v2h0a.15.15,0,0,1-.09.12.47.47,0,0,1-.4,0,.15.15,0,0,1-.08-.12v-2a1.09,1.09,0,0,0-.54-.94l-2.6-1.5h0a.13.13,0,0,1-.07-.13A.44.44,0,0,1,328.66,258.31Z" style="fill:#263238"></path></g><g id="freepik--lamp--inject-70"><path d="M282.4,293.46c0-1.52,2.29-3.81,2.29-3.81h1.81s2.29,2.29,2.29,3.81h0a1.6,1.6,0,0,1-.94,1.31,5,5,0,0,1-4.51,0,1.58,1.58,0,0,1-.94-1.31Z" style="fill:#F59E0B"></path><path d="M282.4,293.46c0-1.52,2.29-3.81,2.29-3.81h1.81s2.29,2.29,2.29,3.81h0a1.6,1.6,0,0,1-.94,1.31,5,5,0,0,1-4.51,0,1.58,1.58,0,0,1-.94-1.31Z" style="fill:#fff;opacity:0.30000000000000004"></path><path d="M286.38,289.56a1.8,1.8,0,0,0-1.57,0,.48.48,0,0,0,0,.91,1.74,1.74,0,0,0,1.57,0A.48.48,0,0,0,286.38,289.56Z" style="fill:#F59E0B"></path><path d="M286.38,289.56a1.8,1.8,0,0,0-1.57,0,.48.48,0,0,0,0,.91,1.74,1.74,0,0,0,1.57,0A.48.48,0,0,0,286.38,289.56Z" style="fill:#fff;opacity:0.2"></path><path d="M286.38,289.56a1.8,1.8,0,0,0-1.57,0,.48.48,0,0,0,0,.91,1.74,1.74,0,0,0,1.57,0A.48.48,0,0,0,286.38,289.56Z" style="opacity:0.2"></path><path d="M280,285.65a3.43,3.43,0,0,1,1.56-2.7,1.11,1.11,0,0,1,1.08-.11l.61.36a1.06,1.06,0,0,1,.46,1,3.46,3.46,0,0,1-1.56,2.7,1.1,1.1,0,0,1-1.09.11l-.61-.36A1.07,1.07,0,0,1,280,285.65Z" style="fill:#263238"></path><ellipse cx="282.15" cy="285.1" rx="2.2" ry="1.27" transform="translate(-105.83 386.9) rotate(-60)" style="fill:#37474f"></ellipse><path d="M282.31,285.07a.14.14,0,0,1,.15,0h0l2.6,1.49a1.68,1.68,0,0,1,.82,1.43v2h0a.14.14,0,0,1-.08.11.43.43,0,0,1-.41,0,.14.14,0,0,1-.08-.11v-2a1.08,1.08,0,0,0-.54-.93l-2.6-1.51h0a.13.13,0,0,1-.07-.13A.44.44,0,0,1,282.31,285.07Z" style="fill:#263238"></path></g><g id="freepik--Poster--inject-70"><polygon points="115.85 233.53 154.57 255.88 154.57 315.49 115.85 293.13 115.85 233.53" style="opacity:0.15"></polygon><path d="M114.85,234.08l34.63,20c1.16.68,4.09,5.84,4.09,9v53l-38.72-22.35Z" style="fill:#455a64"></path><path d="M149.48,254.07c1.88,1.53.49,5.38.49,5.38a3.53,3.53,0,0,1,3.6,3.85h0C153.57,257.83,151.71,255.36,149.48,254.07Z" style="fill:#37474f"></path><path d="M119,269.69l1.17.4c.79.28.84.15.84-1.09V255.1c0-1.25,0-1.43-.84-2.07l-1.17-.94v-1.82l7.4,4.27v1.82l-1.29-.45c-.66-.23-.73,0-.73,1.1v14.05c0,1,.07,1.32.73,1.85l1.29,1v1.82l-7.4-4.27Z" style="fill:#F59E0B"></path><path d="M119,282.19l.48.16c.27.09.29-.08.29-.45v-5.67c0-.38,0-.53-.3-.74l-.47-.38v-.74l3,1.72a3.75,3.75,0,0,1,2.13,3.35c0,.84-.4,1.49-1.08,1.3v.06a3.38,3.38,0,0,1,1.45,2.71c0,1.11-.33,2.39-2.62,1.07L119,282.92Zm3.71-3.44a2.31,2.31,0,0,0-1.24-2.1l-.35-.2v2.91a3.31,3.31,0,0,0,.38.24C122.4,280.11,122.72,279.76,122.72,278.75Zm.36,4a2.52,2.52,0,0,0-1.46-2.25,3.74,3.74,0,0,0-.49-.24v3a5.42,5.42,0,0,0,.61.41C122.82,284.25,123.08,283.64,123.08,282.72Z" style="fill:#F59E0B"></path><path d="M124.68,282.08c0-3.21,1.46-3.76,3.2-2.76a6.74,6.74,0,0,1,3,6c0,2.61-1.07,4-3.12,2.87A6.85,6.85,0,0,1,124.68,282.08Zm4.8,2.62c0-2.06-.61-3.79-1.74-4.45s-1.64.19-1.64,2.41c0,2.06.55,3.82,1.76,4.52C128.87,287.76,129.48,287.05,129.48,284.7Z" style="fill:#F59E0B"></path><path d="M131.29,285.9c0-3.22,1.46-3.76,3.2-2.76a6.74,6.74,0,0,1,3,6c0,2.61-1.07,4.05-3.12,2.87A6.86,6.86,0,0,1,131.29,285.9Zm4.81,2.61c0-2.05-.62-3.78-1.75-4.44s-1.63.18-1.63,2.41c0,2.06.54,3.81,1.76,4.52C135.48,291.58,136.1,290.87,136.1,288.51Z" style="fill:#F59E0B"></path><path d="M142.13,295.29l-1.3-3.54-.74.57v1.34c0,.38,0,.5.24.72l.52.42v.73l-2.92-1.68v-.74l.52.18c.26.09.28,0,.28-.4v-5.7c0-.38,0-.52-.28-.74l-.52-.42v-.74l3,1.72v.74l-.55-.19c-.26-.09-.26.09-.26.46v3l2.24-1.79a.42.42,0,0,0-.1-.63l-.44-.34.09-.69,2.32,1.34v.76l-.3-.09c-.23-.08-.31,0-.59.21l-1.57,1.25,1.48,4c.41,1.09.71,1.36,1,1.53a1.17,1.17,0,0,0,.37.11l.12.77a1.11,1.11,0,0,1-1.11-.13A3.47,3.47,0,0,1,142.13,295.29Z" style="fill:#F59E0B"></path><path d="M145.38,297.62l-.13.53-.58-.34-.16-2.57.68.27a4.15,4.15,0,0,0,1.63,2.6c.84.49,1.06-.06,1.06-.57,0-.79-.55-1.43-1.35-2.25a5,5,0,0,1-1.85-3.72c0-1.18.59-2.21,2.1-1.33a4,4,0,0,1,1.4,1.42l.12-.55.55.32.2,2.71-.67-.23a3.68,3.68,0,0,0-1.5-2.63c-.54-.31-.95-.17-.95.59s.58,1.41,1.39,2.32,1.87,2,1.87,3.67-1,2.08-2.2,1.39A5.12,5.12,0,0,1,145.38,297.62Z" style="fill:#F59E0B"></path><path d="M139.63,283.4l-2.7-3.89c-2.06-3-6.86-10.52-6.86-16.8,0-3.67,2.24-5.36,5-3.77a11.34,11.34,0,0,1,4.57,6.62c.77-1.9,2.53-2.52,4.57-1.34,2.76,1.59,5,5.86,5,9.53a8.89,8.89,0,0,1-6.85,8.89Z" style="fill:#F59E0B"></path><g style="opacity:0.75"><path d="M119,269.69l1.17.4c.79.28.84.15.84-1.09V255.1c0-1.25,0-1.43-.84-2.07l-1.17-.94v-1.82l7.4,4.27v1.82l-1.29-.45c-.66-.23-.73,0-.73,1.1v14.05c0,1,.07,1.32.73,1.85l1.29,1v1.82l-7.4-4.27Z" style="fill:#fff"></path><path d="M119,282.19l.48.16c.27.09.29-.08.29-.45v-5.67c0-.38,0-.53-.3-.74l-.47-.38v-.74l3,1.72a3.75,3.75,0,0,1,2.13,3.35c0,.84-.4,1.49-1.08,1.3v.06a3.38,3.38,0,0,1,1.45,2.71c0,1.11-.33,2.39-2.62,1.07L119,282.92Zm3.71-3.44a2.31,2.31,0,0,0-1.24-2.1l-.35-.2v2.91a3.31,3.31,0,0,0,.38.24C122.4,280.11,122.72,279.76,122.72,278.75Zm.36,4a2.52,2.52,0,0,0-1.46-2.25,3.74,3.74,0,0,0-.49-.24v3a5.42,5.42,0,0,0,.61.41C122.82,284.25,123.08,283.64,123.08,282.72Z" style="fill:#fff"></path><path d="M124.68,282.08c0-3.21,1.46-3.76,3.2-2.76a6.74,6.74,0,0,1,3,6c0,2.61-1.07,4-3.12,2.87A6.85,6.85,0,0,1,124.68,282.08Zm4.8,2.62c0-2.06-.61-3.79-1.74-4.45s-1.64.19-1.64,2.41c0,2.06.55,3.82,1.76,4.52C128.87,287.76,129.48,287.05,129.48,284.7Z" style="fill:#fff"></path><path d="M131.29,285.9c0-3.22,1.46-3.76,3.2-2.76a6.74,6.74,0,0,1,3,6c0,2.61-1.07,4.05-3.12,2.87A6.86,6.86,0,0,1,131.29,285.9Zm4.81,2.61c0-2.05-.62-3.78-1.75-4.44s-1.63.18-1.63,2.41c0,2.06.54,3.81,1.76,4.52C135.48,291.58,136.1,290.87,136.1,288.51Z" style="fill:#fff"></path><path d="M142.13,295.29l-1.3-3.54-.74.57v1.34c0,.38,0,.5.24.72l.52.42v.73l-2.92-1.68v-.74l.52.18c.26.09.28,0,.28-.4v-5.7c0-.38,0-.52-.28-.74l-.52-.42v-.74l3,1.72v.74l-.55-.19c-.26-.09-.26.09-.26.46v3l2.24-1.79a.42.42,0,0,0-.1-.63l-.44-.34.09-.69,2.32,1.34v.76l-.3-.09c-.23-.08-.31,0-.59.21l-1.57,1.25,1.48,4c.41,1.09.71,1.36,1,1.53a1.17,1.17,0,0,0,.37.11l.12.77a1.11,1.11,0,0,1-1.11-.13A3.47,3.47,0,0,1,142.13,295.29Z" style="fill:#fff"></path><path d="M145.38,297.62l-.13.53-.58-.34-.16-2.57.68.27a4.15,4.15,0,0,0,1.63,2.6c.84.49,1.06-.06,1.06-.57,0-.79-.55-1.43-1.35-2.25a5,5,0,0,1-1.85-3.72c0-1.18.59-2.21,2.1-1.33a4,4,0,0,1,1.4,1.42l.12-.55.55.32.2,2.71-.67-.23a3.68,3.68,0,0,0-1.5-2.63c-.54-.31-.95-.17-.95.59s.58,1.41,1.39,2.32,1.87,2,1.87,3.67-1,2.08-2.2,1.39A5.12,5.12,0,0,1,145.38,297.62Z" style="fill:#fff"></path><path d="M139.63,283.4l-2.7-3.89c-2.06-3-6.86-10.52-6.86-16.8,0-3.67,2.24-5.36,5-3.77a11.34,11.34,0,0,1,4.57,6.62c.77-1.9,2.53-2.52,4.57-1.34,2.76,1.59,5,5.86,5,9.53a8.89,8.89,0,0,1-6.85,8.89Z" style="fill:#fff"></path></g></g></g></g><g id="freepik--Plants--inject-70"><g id="freepik--Pot--inject-70"><path id="freepik--shadow--inject-70" d="M208.06,409c-4.14,2.39-4.14,6.26,0,8.65a16.54,16.54,0,0,0,15,0c4.14-2.39,4.14-6.26,0-8.65A16.54,16.54,0,0,0,208.06,409Z" style="opacity:0.15"></path><path d="M208.58,413.18c-3.73-3.81-5.91-18.15-2.28-21.17h18.5c3.63,3,1.44,17.36-2.28,21.16l-.1.11-.13.12a3.17,3.17,0,0,1-.34.3l-.09.07-.28.22-.48.3a12.27,12.27,0,0,1-11.1,0h0a3.66,3.66,0,0,1-.49-.31l-.26-.19-.11-.09a3,3,0,0,1-.32-.29l-.15-.14Z" style="fill:#37474f"></path><path d="M223.19,390.8c4.22,2.43,4.22,6.39,0,8.82a16.86,16.86,0,0,1-15.28,0c-4.22-2.43-4.22-6.38,0-8.82A16.86,16.86,0,0,1,223.19,390.8Z" style="fill:#455a64"></path><path d="M221.16,392c3.1,1.79,3.1,4.69,0,6.48a12.39,12.39,0,0,1-11.22,0c-3.1-1.79-3.1-4.69,0-6.48A12.39,12.39,0,0,1,221.16,392Z" style="fill:#263238"></path><path d="M209.94,395.05a12.39,12.39,0,0,1,11.22,0,5.17,5.17,0,0,1,1.86,1.7,5.26,5.26,0,0,1-1.86,1.7,12.39,12.39,0,0,1-11.22,0,5.18,5.18,0,0,1-1.86-1.7A5.09,5.09,0,0,1,209.94,395.05Z" style="fill:#f5f5f5"></path><g id="freepik--plants--inject-70"><path d="M212.4,387.48c.55-.82,1.36-1.46,1.86-2.32,1.05-1.81-.21-3.58.32-5.42a3,3,0,0,1,1.66-1.78,9.41,9.41,0,0,1,2.41-.63,4,4,0,0,0,1.28-.36c.48-.27.63-.74.93-1.16a7.68,7.68,0,0,1,1.17-1.25,4.6,4.6,0,0,1,3.17-1.37c2.51.12,2.44,2.28,1.71,3.92s-.91,2.18.66,3.89,1.57,3.81-.3,5-3.1,1.34-2.35,3.61c.66,2,1.07,3.76-.81,5.93a6.13,6.13,0,0,1-4.94,2.32,8.13,8.13,0,0,1-7.42-6.81,5,5,0,0,1,.56-3.42Z" style="fill:#F59E0B"></path><path d="M225.22,383a.2.2,0,0,0-.23-.14,30.16,30.16,0,0,0-5.86,2.22,26.7,26.7,0,0,1,4.62-7.92.19.19,0,0,0-.27-.26,26.28,26.28,0,0,0-4,6.48,14.86,14.86,0,0,0-1.89-3.09.18.18,0,0,0-.26,0,.19.19,0,0,0,0,.26,14.28,14.28,0,0,1,2,3.31q-.33.75-.63,1.56a.21.21,0,0,0-.05.13,32.37,32.37,0,0,0-2,11.55.19.19,0,0,0,.19.19h.06a.2.2,0,0,0,.12-.18,32.46,32.46,0,0,1,2-11.44,28.54,28.54,0,0,1,6.18-2.42A.18.18,0,0,0,225.22,383Z" style="fill:#fff"></path><path d="M215.86,398.2c-.11.07-1,.37-1.09.41a12.26,12.26,0,0,1-4.82-.06,6.1,6.1,0,0,1-3.32-1.18,1.44,1.44,0,0,1-.38-1.53c.25-.55,1-.86,1-1.46-1.17-.39-2.55-.08-3.59-.74a4.26,4.26,0,0,1-1.63-2.12,2.31,2.31,0,0,1-.08-1.73c.29-.58,1-.72,1.68-.82a1.4,1.4,0,0,0,.49-.15.42.42,0,0,0,.21-.43c0-.2-.26-.31-.46-.37-.43-.14-.88-.22-1.3-.38a2,2,0,0,1-1.05-.81,2.61,2.61,0,0,1-.2-1.57,22.48,22.48,0,0,1,.38-2.7,17.07,17.07,0,0,0,.21-2.35,16.6,16.6,0,0,1,6.84.15c1.23.26,3,.84,3.57,2.13a2.55,2.55,0,0,1,.14,1.16c0,.18-.09.35-.12.53s-.14.54.13.34a.44.44,0,0,0,.12-.18l.87-1.73a1,1,0,0,1,.35-.46c.35-.22,1.28,0,2.27.73A3.78,3.78,0,0,1,217.3,385a10.43,10.43,0,0,1-.15,4l.85-1.17c1-1.38,1.6,1.13,1.64,1.68a12.11,12.11,0,0,1-.78,4.95A8.14,8.14,0,0,1,215.86,398.2Z" style="fill:#F59E0B"></path><path d="M215.86,398.2c-.11.07-1,.37-1.09.41a12.26,12.26,0,0,1-4.82-.06,6.1,6.1,0,0,1-3.32-1.18,1.44,1.44,0,0,1-.38-1.53c.25-.55,1-.86,1-1.46-1.17-.39-2.55-.08-3.59-.74a4.26,4.26,0,0,1-1.63-2.12,2.31,2.31,0,0,1-.08-1.73c.29-.58,1-.72,1.68-.82a1.4,1.4,0,0,0,.49-.15.42.42,0,0,0,.21-.43c0-.2-.26-.31-.46-.37-.43-.14-.88-.22-1.3-.38a2,2,0,0,1-1.05-.81,2.61,2.61,0,0,1-.2-1.57,22.48,22.48,0,0,1,.38-2.7,17.07,17.07,0,0,0,.21-2.35,16.6,16.6,0,0,1,6.84.15c1.23.26,3,.84,3.57,2.13a2.55,2.55,0,0,1,.14,1.16c0,.18-.09.35-.12.53s-.14.54.13.34a.44.44,0,0,0,.12-.18l.87-1.73a1,1,0,0,1,.35-.46c.35-.22,1.28,0,2.27.73A3.78,3.78,0,0,1,217.3,385a10.43,10.43,0,0,1-.15,4l.85-1.17c1-1.38,1.6,1.13,1.64,1.68a12.11,12.11,0,0,1-.78,4.95A8.14,8.14,0,0,1,215.86,398.2Z" style="opacity:0.25"></path><path d="M213.23,391.72a15.21,15.21,0,0,1,1.67-6.36l0-.05a.17.17,0,0,0-.09-.22.16.16,0,0,0-.22.08l0,.05a15.68,15.68,0,0,0-1.68,6c-2.7-4.53-6.64-8.84-8.72-10a.19.19,0,0,0-.24.07.18.18,0,0,0,.07.25c2.05,1.11,5.94,5.37,8.59,9.85a10.43,10.43,0,0,0-6.75-.46.18.18,0,0,0-.11.22.16.16,0,0,0,.13.11.14.14,0,0,0,.09,0,10,10,0,0,1,6.93.64A18.2,18.2,0,0,1,215.3,398a.17.17,0,0,0,.13.14h.08a.18.18,0,0,0,.15-.21A19,19,0,0,0,213.23,391.72Z" style="fill:#fff"></path></g></g><g id="freepik--pot--inject-70"><path id="freepik--shadow--inject-70" d="M418.17,296.54c4.14,2.39,4.14,6.26,0,8.65a16.54,16.54,0,0,1-15,0c-4.14-2.39-4.14-6.26,0-8.65A16.54,16.54,0,0,1,418.17,296.54Z" style="opacity:0.15"></path><path d="M417.65,300.72c3.72-3.8,5.91-18.15,2.28-21.16h-18.5c-3.63,3-1.45,17.35,2.28,21.16l.1.1a.8.8,0,0,0,.13.13l.33.3.09.07.29.21a3.94,3.94,0,0,0,.48.31,12.27,12.27,0,0,0,11.1,0h0c.16-.09.32-.2.48-.31l.27-.2.11-.09.32-.28.15-.15Z" style="fill:#37474f"></path><path d="M403,278.34c-4.22,2.44-4.22,6.39,0,8.83a16.92,16.92,0,0,0,15.28,0c4.22-2.44,4.22-6.39,0-8.83A16.92,16.92,0,0,0,403,278.34Z" style="fill:#455a64"></path><path d="M405.07,279.52c-3.1,1.78-3.1,4.69,0,6.47a12.39,12.39,0,0,0,11.22,0c3.1-1.78,3.1-4.69,0-6.47A12.39,12.39,0,0,0,405.07,279.52Z" style="fill:#263238"></path><path d="M416.29,282.59a12.39,12.39,0,0,0-11.22,0,5.18,5.18,0,0,0-1.86,1.7,5.09,5.09,0,0,0,1.86,1.7,12.39,12.39,0,0,0,11.22,0,5.17,5.17,0,0,0,1.86-1.7A5.26,5.26,0,0,0,416.29,282.59Z" style="fill:#f5f5f5"></path><g id="freepik--plants--inject-70"><path d="M413.83,275c-.55-.83-1.37-1.47-1.86-2.33-1.05-1.8.2-3.57-.32-5.41a3,3,0,0,0-1.66-1.78,8.63,8.63,0,0,0-2.42-.63,3.66,3.66,0,0,1-1.27-.37c-.48-.27-.63-.74-.93-1.15a8.21,8.21,0,0,0-1.17-1.26,4.63,4.63,0,0,0-3.17-1.36c-2.51.11-2.44,2.28-1.72,3.92s.92,2.17-.65,3.88-1.58,3.82.3,5,3.09,1.33,2.35,3.61c-.66,2-1.07,3.76.8,5.92a6.08,6.08,0,0,0,4.94,2.32,8.13,8.13,0,0,0,7.43-6.81,5,5,0,0,0-.56-3.42Z" style="fill:#F59E0B"></path><path d="M413.83,275c-.55-.83-1.37-1.47-1.86-2.33-1.05-1.8.2-3.57-.32-5.41a3,3,0,0,0-1.66-1.78,8.63,8.63,0,0,0-2.42-.63,3.66,3.66,0,0,1-1.27-.37c-.48-.27-.63-.74-.93-1.15a8.21,8.21,0,0,0-1.17-1.26,4.63,4.63,0,0,0-3.17-1.36c-2.51.11-2.44,2.28-1.72,3.92s.92,2.17-.65,3.88-1.58,3.82.3,5,3.09,1.33,2.35,3.61c-.66,2-1.07,3.76.8,5.92a6.08,6.08,0,0,0,4.94,2.32,8.13,8.13,0,0,0,7.43-6.81,5,5,0,0,0-.56-3.42Z" style="opacity:0.25"></path><path d="M401,270.55a.18.18,0,0,1,.22-.13,29.23,29.23,0,0,1,5.87,2.22,26.78,26.78,0,0,0-4.62-7.92.19.19,0,0,1,0-.27.18.18,0,0,1,.26,0,26,26,0,0,1,4,6.47,14.14,14.14,0,0,1,1.9-3.08.18.18,0,1,1,.28.24,14.38,14.38,0,0,0-2,3.3c.22.5.43,1,.63,1.57a.18.18,0,0,1,.05.12,32.48,32.48,0,0,1,2,11.56.17.17,0,0,1-.18.18h-.06a.17.17,0,0,1-.13-.17,32,32,0,0,0-2-11.45,28.29,28.29,0,0,0-6.17-2.41A.19.19,0,0,1,401,270.55Z" style="fill:#fff"></path><path d="M410.37,285.75c.1.06,1,.37,1.09.4a12.2,12.2,0,0,0,4.81,0,6.13,6.13,0,0,0,3.32-1.19,1.42,1.42,0,0,0,.39-1.53c-.25-.55-1-.86-1-1.46,1.17-.39,2.55-.08,3.6-.73a4.28,4.28,0,0,0,1.63-2.13,2.31,2.31,0,0,0,.08-1.73c-.29-.58-1-.72-1.68-.82a1.16,1.16,0,0,1-.49-.14.46.46,0,0,1-.22-.43.62.62,0,0,1,.47-.38c.43-.14.88-.22,1.3-.38a2.06,2.06,0,0,0,1.05-.8,2.71,2.71,0,0,0,.2-1.57,24.54,24.54,0,0,0-.38-2.71,18.71,18.71,0,0,1-.22-2.34,16.39,16.39,0,0,0-6.83.15c-1.24.26-3,.83-3.57,2.12a2.3,2.3,0,0,0-.14,1.16,4.54,4.54,0,0,0,.12.53c0,.11.14.54-.13.34a.55.55,0,0,1-.13-.17l-.87-1.74a1.11,1.11,0,0,0-.34-.46c-.35-.21-1.28,0-2.27.74a3.8,3.8,0,0,0-1.22,2.14,10.48,10.48,0,0,0,.15,4l-.84-1.18c-1-1.37-1.6,1.14-1.64,1.68a12.06,12.06,0,0,0,.78,4.95A8.22,8.22,0,0,0,410.37,285.75Z" style="fill:#F59E0B"></path><path d="M413,279.26a15.13,15.13,0,0,0-1.68-6.36l0,0a.17.17,0,1,1,.31-.15l0,.05a15.74,15.74,0,0,1,1.68,6c2.69-4.53,6.64-8.85,8.71-10a.18.18,0,0,1,.25.07.19.19,0,0,1-.07.25c-2.05,1.11-5.94,5.37-8.6,9.84a10.42,10.42,0,0,1,6.76-.45.16.16,0,0,1,.11.21.19.19,0,0,1-.14.12h-.08a10,10,0,0,0-6.94.63,18.71,18.71,0,0,0-2.39,6.15.19.19,0,0,1-.12.15h-.08a.17.17,0,0,1-.15-.2A18.7,18.7,0,0,1,413,279.26Z" style="fill:#fff"></path></g></g></g></svg>